<svg width="139" height="44" viewBox="0 0 139 44" fill="none" xmlns="http://www.w3.org/2000/svg">
<path d="M139 39.561C139 40.1401 138.897 40.7136 138.698 41.2487C138.498 41.7837 138.205 42.2698 137.836 42.6791C137.467 43.0884 137.029 43.413 136.546 43.6342C136.064 43.8554 135.548 43.969 135.026 43.9684H4.9677C3.91357 43.9696 2.90216 43.506 2.15591 42.6795C1.40965 41.8529 0.989655 40.7312 0.988281 39.561V4.41318C0.989654 3.2424 1.40949 2.12008 2.15559 1.29265C2.9017 0.465213 3.91309 0.000303898 4.9677 0H135.025C135.547 -1.97112e-08 136.064 0.114159 136.546 0.335956C137.028 0.557753 137.466 0.882843 137.835 1.29266C138.204 1.70248 138.497 2.18899 138.697 2.72442C138.897 3.25984 138.999 3.83369 138.999 4.41318L139 39.561Z" fill="white"/>
<path d="M31.1136 21.2477C31.0842 17.9384 33.7925 16.3284 33.9164 16.2534C32.3825 13.9915 30.0051 13.6824 29.1697 13.6577C27.173 13.4452 25.2362 14.8663 24.219 14.8663C23.1816 14.8663 21.6153 13.6783 19.9271 13.7132C17.7548 13.7471 15.7226 15.0193 14.608 16.9948C12.3077 21.0228 14.0233 26.9422 16.2271 30.1981C17.3295 31.7938 18.6177 33.5732 20.3038 33.5105C21.9533 33.4428 22.5695 32.4478 24.5601 32.4478C26.5325 32.4478 27.1111 33.5105 28.8307 33.4705C30.601 33.4428 31.7156 31.8687 32.7794 30.2598C34.0534 28.4331 34.565 26.6321 34.5853 26.5397C34.5447 26.5254 31.1482 25.2131 31.1136 21.2477ZM27.8653 11.5159C28.7525 10.3936 29.3595 8.86679 29.191 7.31738C27.9069 7.37488 26.301 8.21582 25.3763 9.31344C24.5581 10.2807 23.8272 11.866 24.016 13.3569C25.4585 13.4657 26.9395 12.6207 27.8653 11.5159Z" fill="#828282"/>
<path d="M55.6707 33.3101H53.3196L52.0316 29.2642H47.555L46.3281 33.3101H44.0391L48.4754 19.5359H51.2148L55.6707 33.3101ZM51.6434 27.5667L50.4787 23.97C50.3555 23.6026 50.1236 22.7373 49.784 21.3752H49.7426C49.6059 21.961 49.3875 22.8263 49.0883 23.97L47.9432 27.5667H51.6434ZM67.057 28.2219C67.057 29.9111 66.5984 31.2463 65.6801 32.2265C64.858 33.099 63.8362 33.5347 62.6176 33.5347C61.3018 33.5347 60.3555 33.0659 59.7809 32.1261V37.3375H57.5736V26.6425C57.5736 25.5816 57.5457 24.4937 57.4918 23.378H59.433L59.5562 24.9523H59.5977C60.3338 23.7661 61.4509 23.173 62.95 23.173C64.1219 23.173 65.1003 23.6357 65.883 24.562C66.6647 25.4905 67.057 26.7097 67.057 28.2219ZM64.8084 28.3027C64.8084 27.3359 64.5909 26.539 64.154 25.9107C63.6768 25.2576 63.0359 24.9305 62.2325 24.9305C61.6879 24.9305 61.1931 25.1127 60.751 25.4718C60.3079 25.8341 60.018 26.3071 59.8824 26.8929C59.8218 27.112 59.7874 27.3375 59.7799 27.5647V29.2218C59.7799 29.9432 60.0014 30.5528 60.4445 31.0517C60.8876 31.5485 61.4633 31.798 62.1714 31.798C63.0028 31.798 63.6498 31.4761 64.1126 30.8375C64.5764 30.1968 64.8084 29.3522 64.8084 28.3027ZM78.4837 28.2219C78.4837 29.9111 78.0251 31.2463 77.1068 32.2265C76.2837 33.099 75.2629 33.5347 74.0433 33.5347C72.7274 33.5347 71.7811 33.0659 71.2065 32.1261V37.3375H68.9993V26.6425C68.9993 25.5816 68.9713 24.4937 68.9175 23.378H70.8587L70.9819 24.9523H71.0233C71.7584 23.7661 72.8755 23.173 74.3756 23.173C75.5466 23.173 76.5249 23.6357 77.3097 24.562C78.0903 25.4905 78.4837 26.7097 78.4837 28.2219ZM76.234 28.3027C76.234 27.3359 76.0155 26.539 75.5786 25.9107C75.1014 25.2576 74.4626 24.9305 73.6592 24.9305C73.1146 24.9305 72.6197 25.1127 72.1756 25.4718C71.7325 25.8341 71.4436 26.3071 71.308 26.8929C71.2407 27.1662 71.2045 27.3887 71.2045 27.5647V29.2218C71.2045 29.9432 71.4271 30.5528 71.8681 31.0517C72.3112 31.5475 72.8869 31.798 73.5971 31.798C74.4295 31.798 75.0765 31.4761 75.5383 30.8375C76.0021 30.1968 76.234 29.3522 76.234 28.3027ZM91.2594 29.4464C91.2594 30.6191 90.8494 31.5723 90.0346 32.3082C89.1381 33.1114 87.8864 33.514 86.2817 33.514C84.7991 33.514 83.6106 33.2284 82.714 32.656L83.2244 30.8168C84.1924 31.3902 85.2557 31.6758 86.4131 31.6758C87.2455 31.6758 87.8926 31.4875 88.3543 31.1138C88.8171 30.7391 89.0511 30.2382 89.0511 29.613C89.0511 29.0531 88.8575 28.5842 88.4775 28.2023C88.0955 27.8214 87.464 27.4664 86.5767 27.1403C84.1644 26.2409 82.9573 24.9253 82.9573 23.1948C82.9573 22.0645 83.3838 21.1392 84.2348 20.4157C85.0859 19.6933 86.2144 19.332 87.6182 19.332C88.872 19.332 89.9166 19.5504 90.7459 19.9862L90.192 21.7851C89.4114 21.3628 88.5303 21.1516 87.5447 21.1516C86.7662 21.1516 86.1553 21.3431 85.7184 21.724C85.3509 22.0645 85.1646 22.4796 85.1646 22.9722C85.1646 23.5156 85.3768 23.9669 85.7992 24.3209C86.1657 24.6469 86.8345 25.0019 87.8015 25.3828C88.9879 25.861 89.8597 26.4179 90.4177 27.0575C90.9799 27.6972 91.2594 28.4952 91.2594 29.4464ZM98.5759 25.034H96.143V29.8562C96.143 31.0828 96.5716 31.6945 97.4309 31.6945C97.8253 31.6945 98.1525 31.6613 98.4113 31.592L98.4724 33.2677C98.0376 33.4302 97.465 33.512 96.7558 33.512C95.8841 33.512 95.2029 33.246 94.7111 32.714C94.2214 32.182 93.975 31.2908 93.975 30.0363V25.0299H92.5256V23.3738H93.975V21.5553L96.143 20.9011V23.3738H98.5759V25.034ZM109.532 28.2623C109.532 29.789 109.095 31.0424 108.223 32.0226C107.311 33.0317 106.097 33.5347 104.585 33.5347C103.125 33.5347 101.964 33.0514 101.099 32.0857C100.233 31.1179 99.8007 29.8987 99.8007 28.4279C99.8007 26.8888 100.248 25.6281 101.139 24.648C102.033 23.6667 103.236 23.1761 104.748 23.1761C106.206 23.1761 107.377 23.6605 108.263 24.6273C109.11 25.565 109.532 26.776 109.532 28.2623ZM107.244 28.313C107.244 27.4032 107.047 26.6228 106.652 25.9697C106.19 25.181 105.527 24.7867 104.669 24.7867C103.785 24.7867 103.106 25.181 102.645 25.9697C102.249 26.6228 102.052 27.4167 102.052 28.3544C102.052 29.2652 102.249 30.0477 102.645 30.6988C103.122 31.4875 103.788 31.8818 104.65 31.8818C105.494 31.8818 106.155 31.4792 106.634 30.6791C107.04 30.0105 107.244 29.2249 107.244 28.313ZM116.709 25.3187C116.48 25.2772 116.247 25.2568 116.014 25.2576C115.237 25.2576 114.637 25.5495 114.214 26.1374C113.848 26.6549 113.663 27.309 113.663 28.0988V33.3101H111.456V26.5058C111.458 25.4632 111.437 24.4207 111.392 23.379H113.315L113.395 25.2793H113.456C113.69 24.6262 114.057 24.0994 114.56 23.705C115.021 23.3605 115.58 23.1739 116.155 23.173C116.359 23.173 116.544 23.1875 116.707 23.2134L116.709 25.3187ZM126.581 27.8742C126.587 28.2096 126.56 28.5448 126.5 28.875H119.878C119.903 29.8562 120.224 30.6077 120.839 31.1252C121.397 31.5868 122.119 31.8187 123.005 31.8187C123.985 31.8187 124.88 31.6634 125.684 31.3498L126.03 32.8806C125.09 33.2905 123.98 33.4944 122.7 33.4944C121.159 33.4944 119.95 33.041 119.07 32.1364C118.192 31.2308 117.752 30.0136 117.752 28.489C117.752 26.9923 118.161 25.7451 118.98 24.7504C119.837 23.6885 120.995 23.1575 122.453 23.1575C123.885 23.1575 124.969 23.6885 125.705 24.7504C126.288 25.5919 126.581 26.6352 126.581 27.8742ZM124.476 27.3018C124.492 26.6466 124.347 26.0825 124.048 25.6054C123.666 24.9906 123.077 24.6842 122.29 24.6842C121.568 24.6842 120.98 24.9833 120.533 25.5836C120.165 26.0608 119.947 26.6342 119.879 27.2997L124.476 27.3018Z" fill="#828282"/>
<path d="M46.7396 7.39257C46.7396 7.13892 46.6466 6.93774 46.4608 6.78905C46.2771 6.63817 46.018 6.56273 45.6834 6.56273C45.4035 6.56273 45.1685 6.64036 44.9782 6.79561C44.7902 6.94868 44.6961 7.13892 44.6961 7.36633H44.0664C44.0664 7.11268 44.1353 6.88526 44.273 6.68409C44.413 6.48292 44.6076 6.32658 44.8569 6.21506C45.1061 6.10135 45.3817 6.0445 45.6834 6.0445C46.217 6.0445 46.6313 6.16476 46.9265 6.40529C47.2217 6.64364 47.3693 6.97601 47.3693 7.40241C47.3693 7.62326 47.3015 7.82443 47.166 8.00592C47.0304 8.18742 46.8412 8.33064 46.5985 8.4356C47.1605 8.62365 47.4415 8.99648 47.4415 9.55407C47.4415 9.98266 47.2819 10.3227 46.9626 10.5741C46.6434 10.8256 46.217 10.9513 45.6834 10.9513C45.3663 10.9513 45.0777 10.8956 44.8175 10.7841C44.5595 10.6704 44.3583 10.5096 44.214 10.3019C44.0697 10.0942 43.9975 9.84708 43.9975 9.56063H44.6273C44.6273 9.8121 44.7268 10.022 44.9257 10.1904C45.1247 10.3566 45.3773 10.4397 45.6834 10.4397C46.0267 10.4397 46.3 10.3599 46.5034 10.2002C46.709 10.0406 46.8117 9.82959 46.8117 9.56719C46.8117 9.00741 46.4651 8.72205 45.772 8.71112H45.1816V8.19288H45.7687C46.0879 8.18632 46.3296 8.11416 46.4936 7.9764C46.6576 7.83864 46.7396 7.64403 46.7396 7.39257ZM50.915 9.63935H48.9142L48.4648 10.8857H47.8154L49.6391 6.1101H50.1901L52.017 10.8857H51.3709L50.915 9.63935ZM49.1044 9.12111H50.728L49.9146 6.88745L49.1044 9.12111ZM55.6217 6.62833H53.3192V10.8857H52.6862V6.1101H55.6217V6.62833ZM57.0289 9.01616V10.8857H56.3991V6.1101H58.1604C58.6831 6.1101 59.092 6.24348 59.3872 6.51025C59.6845 6.77703 59.8332 7.13017 59.8332 7.56969C59.8332 8.03326 59.6878 8.39077 59.397 8.64224C59.1084 8.89152 58.694 9.01616 58.1539 9.01616H57.0289ZM57.0289 8.5012H58.1604C58.4972 8.5012 58.7552 8.42248 58.9345 8.26504C59.1138 8.10542 59.2035 7.87582 59.2035 7.57625C59.2035 7.29198 59.1138 7.06457 58.9345 6.89401C58.7552 6.72345 58.5092 6.63489 58.1965 6.62833H57.0289V8.5012ZM62.2768 8.88168L63.3756 6.1101H64.107L62.4179 10.0887C62.3041 10.3424 62.1981 10.5228 62.0997 10.6299C62.0013 10.7349 61.8854 10.8158 61.752 10.8726C61.6208 10.9273 61.4557 10.9546 61.2567 10.9546C61.084 10.9546 60.9736 10.9448 60.9255 10.9251L60.9451 10.4265L61.2436 10.4397C61.4732 10.4397 61.6438 10.3292 61.7553 10.1084L61.8373 9.93783L61.9619 9.64591L60.3351 6.1101H61.0403L62.2768 8.88168ZM67.3116 7.39257C67.3116 7.13892 67.2186 6.93774 67.0328 6.78905C66.8491 6.63817 66.59 6.56273 66.2554 6.56273C65.9755 6.56273 65.7405 6.64036 65.5502 6.79561C65.3622 6.94868 65.2682 7.13892 65.2682 7.36633H64.6384C64.6384 7.11268 64.7073 6.88526 64.845 6.68409C64.985 6.48292 65.1796 6.32658 65.4289 6.21506C65.6781 6.10135 65.9537 6.0445 66.2554 6.0445C66.789 6.0445 67.2033 6.16476 67.4985 6.40529C67.7937 6.64364 67.9413 6.97601 67.9413 7.40241C67.9413 7.62326 67.8735 7.82443 67.738 8.00592C67.6024 8.18742 67.4133 8.33064 67.1705 8.4356C67.7325 8.62365 68.0135 8.99648 68.0135 9.55407C68.0135 9.98266 67.8539 10.3227 67.5346 10.5741C67.2154 10.8256 66.789 10.9513 66.2554 10.9513C65.9384 10.9513 65.6497 10.8956 65.3895 10.7841C65.1315 10.6704 64.9303 10.5096 64.786 10.3019C64.6417 10.0942 64.5695 9.84708 64.5695 9.56063H65.1993C65.1993 9.8121 65.2988 10.022 65.4978 10.1904C65.6967 10.3566 65.9493 10.4397 66.2554 10.4397C66.5987 10.4397 66.8721 10.3599 67.0754 10.2002C67.281 10.0406 67.3837 9.82959 67.3837 9.56719C67.3837 9.00741 67.0372 8.72205 66.344 8.71112H65.7536V8.19288H66.3407C66.66 8.18632 66.9016 8.11416 67.0656 7.9764C67.2296 7.83864 67.3116 7.64403 67.3116 7.39257ZM71.8609 6.1101H72.4907V10.8857H71.8609V7.20561L69.5092 10.8857H68.8761V6.1101H69.5092V9.79023L71.8609 6.1101ZM76.8399 6.62833H75.3049V10.8857H74.6784V6.62833H73.1467V6.1101H76.8399V6.62833ZM78.2109 8.0584H79.3983C79.8968 8.06496 80.2861 8.19288 80.566 8.44216C80.8459 8.69144 80.9858 9.03037 80.9858 9.45895C80.9858 9.88972 80.8448 10.233 80.5627 10.4889C80.2806 10.7447 79.8958 10.877 79.4081 10.8857H77.5812V6.1101H78.2109V8.0584ZM78.2109 8.57664V10.3708H79.3622C79.6749 10.3708 79.9176 10.2877 80.0904 10.1215C80.2653 9.95532 80.3528 9.73228 80.3528 9.45239C80.3528 9.18343 80.2686 8.97133 80.1002 8.81608C79.934 8.66082 79.6968 8.58101 79.3885 8.57664H78.2109ZM87.1554 10.8857H86.5224V8.67832H84.1149V10.8857H83.4851V6.1101H84.1149V8.16336H86.5224V6.1101H87.1554V10.8857ZM90.97 9.63935H88.9693L88.5199 10.8857H87.8705L89.6941 6.1101H90.2452L92.0721 10.8857H91.426L90.97 9.63935ZM89.1595 9.12111H90.7831L89.9697 6.88745L89.1595 9.12111Z" fill="#828282"/>
</svg>
