<svg width="26" height="26" viewBox="0 0 26 26" fill="none" xmlns="http://www.w3.org/2000/svg">
<path d="M8.28423 21.5525C9.49818 21.5525 10.4418 22.5491 10.4418 23.763C10.4418 24.977 9.44517 25.9736 8.28423 25.9736C7.12329 25.9736 6.12669 24.977 6.12669 23.763C6.12669 22.5491 7.12329 21.5525 8.28423 21.5525ZM8.28423 24.8657C8.89385 24.8657 9.33384 24.3674 9.33384 23.7577C9.33384 23.1481 8.83554 22.6498 8.28423 22.6498C7.73292 22.6498 7.23462 23.1481 7.23462 23.7577C7.23462 24.3674 7.73292 24.8657 8.28423 24.8657Z" fill="black"/>
<path d="M20.0591 21.5525C21.2731 21.5525 22.2167 22.5491 22.2167 23.763C22.2167 24.977 21.2201 25.9736 20.0591 25.9736C18.8452 25.9736 17.9016 24.977 17.9016 23.763C17.9016 22.5491 18.8982 21.5525 20.0591 21.5525ZM20.0591 24.8657C20.6688 24.8657 21.1087 24.3674 21.1087 23.7577C21.1087 23.1481 20.6104 22.6498 20.0591 22.6498C19.4495 22.6498 19.0095 23.1481 19.0095 23.7577C19.0095 24.3727 19.5025 24.8657 20.0591 24.8657Z" fill="black"/>
<path d="M3.08981 0L3.94859 3.37149H25.6406L21.6383 15.23C22.9795 15.4262 23.9814 16.5606 23.9814 18.0184C23.9814 19.6193 22.7674 20.8916 21.2195 20.8916H6.18565V19.842H21.2195C22.1578 19.842 22.8788 19.068 22.8788 18.0714C22.8788 17.0748 22.1048 16.3008 21.2195 16.3008H6.18565H6.13264L2.20983 1.10263H-0.000717163V0H3.08981ZM6.95961 15.1982H20.4986L24.0927 4.47411H4.25075L6.95961 15.1982Z" fill="black"/>
<path d="M17.5138 7.07056H18.6217V13.3152H17.5138V7.07056Z" fill="black"/>
<path d="M13.5849 7.07056H14.6929V13.3152H13.5849V7.07056Z" fill="black"/>
<path d="M9.6627 7.07056H10.7706V13.3152H9.6627V7.07056Z" fill="black"/>
</svg>
