<svg width="161" height="161" viewBox="0 0 161 161" fill="none" xmlns="http://www.w3.org/2000/svg">
<path fill-rule="evenodd" clip-rule="evenodd" d="M80.4589 0C94.3963 0 107.511 3.53575 118.941 9.78498L114.254 17.8432C104.181 12.4162 92.6696 9.33274 80.4589 9.33274C68.2482 9.33274 56.7365 12.4162 46.6637 17.8432L41.9768 9.78498C53.4063 3.53575 66.5214 0 80.4589 0ZM107.635 61.629C107.635 62.6568 106.813 63.5202 105.744 63.5202C104.716 63.5202 103.852 62.6568 103.852 61.629C103.852 60.6011 104.716 59.7377 105.744 59.7377C106.813 59.7377 107.635 60.6011 107.635 61.629ZM139.95 69.5227C139.95 70.5506 139.087 71.4139 138.018 71.4139C136.99 71.4139 136.168 70.5506 136.168 69.5227C136.168 68.4949 136.99 67.6315 138.018 67.6315C139.087 67.6315 139.95 68.4949 139.95 69.5227ZM118.735 53.9408C118.735 55.0097 117.913 55.832 116.844 55.832C115.816 55.832 114.953 55.0097 114.953 53.9408C114.953 52.9129 115.816 52.0495 116.844 52.0495C117.913 52.0495 118.735 52.9129 118.735 53.9408ZM125.272 66.5214C125.272 68.166 123.916 69.5227 122.271 69.5227C120.627 69.5227 119.27 68.166 119.27 66.5214C119.27 64.8769 120.627 63.5202 122.271 63.5202C123.916 63.5202 125.272 64.8769 125.272 66.5214ZM130.165 47.7326C130.165 50.035 128.315 51.8851 126.013 51.8851C123.71 51.8851 121.86 50.035 121.86 47.7326C121.86 45.4303 123.71 43.5802 126.013 43.5802C128.315 43.5802 130.165 45.4303 130.165 47.7326ZM71.6606 39.1399C71.6606 40.1678 70.7972 41.0312 69.7283 41.0312C68.7005 41.0312 67.8371 40.1678 67.8371 39.1399C67.8371 38.071 68.7005 37.2487 69.7283 37.2487C70.7972 37.2487 71.6606 38.071 71.6606 39.1399ZM89.915 44.5669C89.915 45.5947 89.0927 46.4581 88.0237 46.4581C86.9959 46.4581 86.1325 45.5947 86.1325 44.5669C86.1325 43.498 86.9959 42.6757 88.0237 42.6757C89.0927 42.6757 89.915 43.498 89.915 44.5669ZM81.6512 49.5827C81.6512 50.8573 80.6233 51.8851 79.3488 51.8851C78.0743 51.8851 77.0054 50.8573 77.0054 49.5827C77.0054 48.3082 78.0743 47.2804 79.3488 47.2804C80.6233 47.2804 81.6512 48.3082 81.6512 49.5827ZM73.1818 29.4372C73.1818 31.3284 71.6606 32.8907 69.7283 32.8907C67.8371 32.8907 66.3159 31.3284 66.3159 29.4372C66.3159 27.546 67.8371 25.9837 69.7283 25.9837C71.6606 25.9837 73.1818 27.546 73.1818 29.4372ZM91.8062 122.025C91.8062 123.093 90.9839 123.916 89.915 123.916C88.8871 123.916 88.0237 123.093 88.0237 122.025C88.0237 120.997 88.8871 120.133 89.915 120.133C90.9839 120.133 91.8062 120.997 91.8062 122.025ZM68.2071 130.864C68.2071 131.892 67.3437 132.755 66.3159 132.755C65.2469 132.755 64.4247 131.892 64.4247 130.864C64.4247 129.836 65.2469 128.973 66.3159 128.973C67.3437 128.973 68.2071 129.836 68.2071 130.864ZM80.3355 119.023C80.3355 120.709 78.9788 122.025 77.3343 122.025C75.6486 122.025 74.333 120.709 74.333 119.023C74.333 117.379 75.6486 116.022 77.3343 116.022C78.9788 116.022 80.3355 117.379 80.3355 119.023ZM82.3501 101.016C82.3501 102.66 80.9934 104.017 79.3488 104.017C77.6632 104.017 76.3475 102.66 76.3475 101.016C76.3475 99.3299 77.6632 98.0143 79.3488 98.0143C80.9934 98.0143 82.3501 99.3299 82.3501 101.016ZM85.8036 133.125C85.8036 135.427 83.9535 137.278 81.6512 137.278C79.3488 137.278 77.4987 135.427 77.4987 133.125C77.4987 130.823 79.3488 128.973 81.6512 128.973C83.9535 128.973 85.8036 130.823 85.8036 133.125ZM51.3917 111.664C51.3917 112.692 50.5283 113.555 49.5005 113.555C48.4727 113.555 47.6093 112.692 47.6093 111.664C47.6093 110.595 48.4727 109.773 49.5005 109.773C50.5283 109.773 51.3917 110.595 51.3917 111.664ZM40.5378 113.555C40.5378 114.583 39.6744 115.446 38.6466 115.446C37.5776 115.446 36.7554 114.583 36.7554 113.555C36.7554 112.486 37.5776 111.664 38.6466 111.664C39.6744 111.664 40.5378 112.486 40.5378 113.555ZM66.3159 90.7783C66.3159 91.8473 65.4525 92.6696 64.4247 92.6696C63.3557 92.6696 62.5335 91.8473 62.5335 90.7783C62.5335 89.7505 63.3557 88.8871 64.4247 88.8871C65.4525 88.8871 66.3159 89.7505 66.3159 90.7783ZM42.5523 98.0143C42.5523 99.6588 41.1956 101.016 39.5511 101.016C37.8654 101.016 36.5498 99.6588 36.5498 98.0143C36.5498 96.3287 37.8654 95.013 39.5511 95.013C41.1956 95.013 42.5523 96.3287 42.5523 98.0143ZM59.5322 69.5227C59.5322 70.5506 58.6688 71.4139 57.641 71.4139C56.572 71.4139 55.7497 70.5506 55.7497 69.5227C55.7497 68.4949 56.572 67.6315 57.641 67.6315C58.6688 67.6315 59.5322 68.4949 59.5322 69.5227ZM47.7737 63.5202C47.7737 64.548 46.9104 65.4114 45.8825 65.4114C44.8136 65.4114 43.9913 64.548 43.9913 63.5202C43.9913 62.4923 44.8136 61.629 45.8825 61.629C46.9104 61.629 47.7737 62.4923 47.7737 63.5202ZM31.4106 61.629C31.4106 63.9313 29.5194 65.7814 27.2171 65.7814C24.9558 65.7814 23.0646 63.9313 23.0646 61.629C23.0646 59.3266 24.9558 57.4765 27.2171 57.4765C29.5194 57.4765 31.4106 59.3266 31.4106 61.629ZM117.173 101.098C117.173 103.4 115.323 105.25 113.021 105.25C110.718 105.25 108.827 103.4 108.827 101.098C108.827 98.7955 110.718 96.9454 113.021 96.9454C115.323 96.9454 117.173 98.7955 117.173 101.098ZM100.399 93.1629C100.399 94.8075 99.0421 96.1642 97.3976 96.1642C95.7119 96.1642 94.3963 94.8075 94.3963 93.1629C94.3963 91.4773 95.7119 90.1616 97.3976 90.1616C99.0421 90.1616 100.399 91.4773 100.399 93.1629ZM130.782 104.099C130.782 105.127 129.918 105.99 128.89 105.99C127.863 105.99 126.999 105.127 126.999 104.099C126.999 103.071 127.863 102.208 128.89 102.208C129.918 102.208 130.782 103.071 130.782 104.099ZM119.064 118.9C119.064 119.928 118.201 120.791 117.173 120.791C116.104 120.791 115.282 119.928 115.282 118.9C115.282 117.831 116.104 117.009 117.173 117.009C118.201 117.009 119.064 117.831 119.064 118.9ZM131.686 115.529C131.686 116.556 130.823 117.42 129.795 117.42C128.767 117.42 127.904 116.556 127.904 115.529C127.904 114.501 128.767 113.637 129.795 113.637C130.823 113.637 131.686 114.501 131.686 115.529ZM113.267 19.57L101.098 40.62C100.604 40.3733 100.07 40.2089 99.4533 40.2089C97.6854 40.2089 96.2053 41.6479 96.2053 43.4568C96.2053 44.6491 96.8631 45.7181 97.8498 46.2937L80.4589 76.3887L47.6504 19.57C57.4354 14.3075 68.5771 11.3062 80.4589 11.3062C92.3407 11.3062 103.482 14.3075 113.267 19.57ZM76.882 82.5557L44.1147 139.374C39.5511 136.538 35.3164 133.207 31.534 129.425C19.4877 117.338 11.8407 100.851 11.3062 82.5557H76.882ZM43.0868 141.101L38.441 149.159C15.9109 135.345 0.698927 110.759 0 82.5557H9.33274C9.86721 101.386 17.7199 118.407 30.1361 130.823C34.0419 134.729 38.3999 138.182 43.0868 141.101ZM0 78.4443C0.698927 50.2406 15.9109 25.6547 38.441 11.8407L43.0868 19.8989C38.3999 22.8179 34.0419 26.2715 30.1361 30.1772C17.7199 42.5935 9.86721 59.6144 9.33274 78.4443H0ZM44.1147 21.6256L49.0483 30.1772C48.0615 30.7528 47.4037 31.8218 47.4037 33.014C47.4037 34.823 48.8838 36.262 50.6517 36.262C51.2684 36.262 51.8029 36.0975 52.2962 35.8509L76.882 78.4443H35.9742C35.7275 77.4165 34.823 76.6353 33.713 76.6353C32.6029 76.6353 31.6573 77.4165 31.4517 78.4443H11.3062C11.8407 60.1489 19.4877 43.6624 31.534 31.5751C35.3164 27.7926 39.5511 24.4625 44.1147 21.6256ZM122.477 11.8407C145.007 25.6547 160.219 50.2406 160.918 78.4443H151.585C151.051 59.6144 143.198 42.5935 130.782 30.1772C126.876 26.2715 122.518 22.8179 117.831 19.8989L122.477 11.8407ZM149.612 78.4443H98.6721C99.4944 77.9099 100.029 76.9642 100.029 75.9364C100.029 74.2919 98.6721 72.9351 97.0276 72.9351C95.383 72.9351 94.0263 74.2919 94.0263 75.9364C94.0263 76.9642 94.5608 77.9099 95.383 78.4443H84.0357L116.803 21.6256C121.367 24.4625 125.601 27.7926 129.384 31.5751C141.43 43.6624 149.077 60.1489 149.612 78.4443ZM160.918 82.5557C160.219 110.759 145.007 135.345 122.477 149.159L117.831 141.101C122.518 138.182 126.876 134.729 130.782 130.823C143.198 118.407 151.051 101.386 151.585 82.5557H160.918ZM116.803 139.374L84.0357 82.5557H149.612C149.077 100.851 141.43 117.338 129.384 129.425C125.601 133.207 121.367 136.538 116.803 139.374ZM118.941 151.215C107.511 157.464 94.3963 161 80.4589 161C66.5214 161 53.4063 157.464 41.9768 151.215L46.6637 143.157C56.7365 148.584 68.2482 151.667 80.4589 151.667C92.6696 151.667 104.181 148.584 114.254 143.157L118.941 151.215ZM47.6504 141.43L80.4589 84.6113L113.267 141.43C103.482 146.693 92.3407 149.694 80.4589 149.694C68.5771 149.694 57.4354 146.693 47.6504 141.43Z" fill="#FF5C00"/>
</svg>
