<svg width="29" height="29" viewBox="0 0 29 29" fill="none" xmlns="http://www.w3.org/2000/svg">
<path fill-rule="evenodd" clip-rule="evenodd" d="M23.8356 14.5C23.8356 9.33562 19.6644 5.14783 14.5 5.14783C9.33562 5.14783 5.14783 9.33562 5.14783 14.5C5.14783 19.6644 9.33562 23.8356 14.5 23.8356C19.6644 23.8356 23.8356 19.6644 23.8356 14.5ZM23.6701 3.87329C22.8259 3.87329 22.1638 4.55194 22.1638 5.37957C22.1638 6.20719 22.8259 6.88584 23.6701 6.88584C24.4977 6.88584 25.1764 6.20719 25.1764 5.37957C25.1764 4.55194 24.4977 3.87329 23.6701 3.87329ZM6.85274 1.72146H22.1473C24.9777 1.72146 27.2785 4.02226 27.2785 6.85274V22.1473C27.2785 24.9777 24.9777 27.2785 22.1473 27.2785H6.85274C4.02226 27.2785 1.72146 24.9777 1.72146 22.1473V6.85274C1.72146 4.02226 4.02226 1.72146 6.85274 1.72146ZM22.1473 0H6.85274C3.09532 0 0 3.07877 0 6.85274V22.1473C0 25.9047 3.09532 29 6.85274 29H22.1473C25.9212 29 29 25.9047 29 22.1473V6.85274C29 3.07877 25.9212 0 22.1473 0ZM7.10103 14.5C7.10103 10.4115 10.4115 7.08448 14.5 7.08448C18.5885 7.08448 21.899 10.4115 21.899 14.5C21.899 18.5885 18.5885 21.899 14.5 21.899C10.4115 21.899 7.10103 18.5885 7.10103 14.5Z" fill="#828282"/>
</svg>
