<svg width="28" height="24" viewBox="0 0 28 24" fill="none" xmlns="http://www.w3.org/2000/svg">
<path d="M15.9425 2.34244L15.9428 2.34255C16.5903 2.60746 17.179 2.9999 17.6696 3.49036C18.1515 3.98219 18.5536 4.56134 18.818 5.20764C19.0735 5.83661 19.2207 6.51387 19.2207 7.24C19.2207 7.95631 19.0735 8.64338 18.8182 9.26185L18.8181 9.26214C18.5537 9.90852 18.1516 10.4877 17.6696 10.9796C17.1792 11.47 16.5903 11.8627 15.942 12.1378C15.3245 12.3925 14.6377 12.53 13.9207 12.53C13.2039 12.53 12.517 12.3926 11.8892 12.1377C11.2509 11.8626 10.662 11.4699 10.1717 10.9796C9.68975 10.4877 9.28765 9.90852 9.02322 9.26214L9.0231 9.26185C8.76786 8.64338 8.62066 7.95631 8.62066 7.24C8.62066 6.51392 8.76777 5.8367 9.02326 5.20776C9.28769 4.56142 9.68978 3.98223 10.1717 3.49036C10.6622 2.99993 11.251 2.60744 11.8887 2.3425C12.5174 2.08711 13.2046 1.94 13.9207 1.94C14.637 1.94 15.324 2.0872 15.9425 2.34244ZM16.3495 1.37784L16.3493 1.37777C15.5966 1.06243 14.7734 0.9 13.9207 0.9C13.0679 0.9 12.2448 1.06243 11.492 1.37777L11.4919 1.37784C10.7203 1.70269 10.0194 2.16985 9.43995 2.74929C8.85087 3.33838 8.38344 4.02931 8.05832 4.81162L8.05832 4.81162L8.05799 4.81243C7.75343 5.56367 7.58066 6.3764 7.58066 7.24C7.58066 8.09345 7.75337 8.91634 8.05817 9.65801L8.05832 9.65838C8.38317 10.4401 8.85045 11.1413 9.44026 11.721C10.0192 12.2998 10.7198 12.7771 11.4919 13.1022L11.4931 13.1027C12.2444 13.4073 13.0671 13.58 13.9207 13.58C14.7742 13.58 15.5969 13.4073 16.3482 13.1027L16.3482 13.1027L16.3495 13.1022C17.1215 12.7771 17.8222 12.2998 18.4011 11.721C18.9909 11.1413 19.4582 10.44 19.783 9.65838L19.7832 9.65801C20.088 8.91634 20.2607 8.09345 20.2607 7.24C20.2607 6.3764 20.0879 5.56367 19.7833 4.81243L19.783 4.81162C19.4579 4.02931 18.9905 3.33838 18.4014 2.74929C17.8219 2.16985 17.121 1.70269 16.3495 1.37784Z" fill="#BDBDBD" stroke="#BDBDBD" stroke-width="0.2"/>
<path d="M16.1759 15.8468C16.3601 15.7983 16.5349 15.7406 16.7088 15.674C17.8301 15.9026 18.8825 16.258 19.8564 16.7302L19.8567 16.7303C20.8884 17.2264 21.8306 17.8512 22.6536 18.575C23.3975 19.2395 24.0415 19.9729 24.5763 20.7849C24.9562 21.3686 25.2838 21.9952 25.535 22.6402H2.30504C2.55623 21.9952 2.88382 21.3687 3.26366 20.785C3.79843 19.973 4.44245 19.2396 5.18634 18.575C6.00931 17.8513 6.95154 17.2264 7.98333 16.7303L7.98363 16.7302C8.95754 16.258 10.0099 15.9026 11.1312 15.674C11.3051 15.7406 11.4799 15.7983 11.6641 15.8468M16.1759 15.8468C15.9561 15.9067 15.7228 15.9677 15.4884 16.0085C15.2364 16.0589 14.9733 16.0994 14.7094 16.1198C14.4354 16.1501 14.1721 16.1602 13.92 16.1602C13.6679 16.1602 13.4046 16.1501 13.1306 16.1198C12.8667 16.0994 12.6036 16.0589 12.3516 16.0085C12.1172 15.9677 11.8839 15.9067 11.6641 15.8468M16.1759 15.8468C16.176 15.8468 16.1762 15.8467 16.1763 15.8467L16.15 15.7502L16.1754 15.8469C16.1756 15.8469 16.1757 15.8468 16.1759 15.8468ZM11.6641 15.8468C11.6643 15.8468 11.6644 15.8469 11.6645 15.8469L11.69 15.7502L11.6637 15.8467C11.6638 15.8467 11.664 15.8468 11.6641 15.8468ZM23.3464 17.7955L23.3459 17.795C22.4496 17.0094 21.4321 16.3243 20.3034 15.7901C19.215 15.2561 18.0168 14.8635 16.769 14.622L16.769 14.622L16.7664 14.6216L16.6464 14.6016L16.6205 14.5972L16.5958 14.6062L16.487 14.6458C16.4868 14.6459 16.4866 14.6459 16.4864 14.646C16.4518 14.6581 16.4176 14.6702 16.3837 14.6821C16.2208 14.7397 16.0643 14.7949 15.8941 14.8436C15.6943 14.8935 15.4975 14.9427 15.2913 14.982L15.2913 14.9819L15.2888 14.9825C15.0641 15.0313 14.8385 15.0608 14.6113 15.0806L14.6109 15.0806C14.391 15.1006 14.155 15.1202 13.92 15.1202C13.685 15.1202 13.449 15.1006 13.2291 15.0806L13.2287 15.0806C13.0015 15.0608 12.7759 15.0313 12.5512 14.9825L12.5512 14.9824L12.5487 14.982C12.3425 14.9427 12.1457 14.8935 11.9459 14.8436C11.7399 14.7847 11.5431 14.7158 11.3546 14.6464L11.3542 14.6462L11.2442 14.6062L11.2195 14.5972L11.1936 14.6016L11.0736 14.6216L11.0736 14.6215L11.0711 14.622C9.81299 14.8636 8.62471 15.2562 7.5266 15.7901C6.40801 16.3242 5.39051 17.0094 4.49409 17.795L4.49409 17.795L4.49356 17.7955C3.67753 18.5208 2.97165 19.3274 2.3965 20.2052C1.82122 21.0732 1.3772 22.0218 1.07446 23.0207C1.0744 23.0208 1.07435 23.021 1.0743 23.0212L0.904615 23.5602L0.86368 23.6902H1H26.84H26.9763L26.9354 23.5602L26.7657 23.0212C26.7657 23.0211 26.7656 23.0209 26.7656 23.0208C26.4628 22.0219 26.0189 21.0733 25.4436 20.2053C24.8684 19.3275 24.1625 18.5209 23.3464 17.7955Z" fill="#BDBDBD" stroke="#BDBDBD" stroke-width="0.2"/>
</svg>
