<svg width="60" height="70" viewBox="0 0 60 70" fill="none" xmlns="http://www.w3.org/2000/svg">
<path fill-rule="evenodd" clip-rule="evenodd" d="M52.6652 58.5233L52.6618 58.5199C52.7286 58.3863 53.1828 57.862 53.3364 57.6617C54.001 56.7867 54.5988 55.8917 55.2032 54.95C56.7094 52.6056 58.1721 48.9221 58.7632 46.2338C59.1305 44.5673 59.4511 42.6671 59.4845 40.8404C59.5379 37.7847 59.2841 35.043 58.6229 32.3847L58.5695 32.1743L58.5628 32.1576L58.5094 31.9472C57.9617 29.9034 57.1669 27.8997 56.0815 25.8325C54.5654 22.9538 53.1027 21.0336 50.8919 18.7761C49.89 17.7508 48.778 16.8058 47.6125 15.9174C45.8124 14.5415 42.8803 12.8451 40.7196 12.0937C40.3122 11.9534 39.9549 11.8432 39.5775 11.7063C38.3987 11.2788 35.9174 10.6343 34.6617 10.484C32.2673 10.1901 31.4057 10.1 28.9211 10.13C27.9726 10.14 27.0209 10.3003 26.0891 10.3738C24.6932 10.4807 22.3956 11.035 21.0731 11.4625C20.7091 11.5827 20.3117 11.733 19.9544 11.8666C19.5837 12.0035 19.2097 12.2106 18.8523 12.3107C18.849 12.264 18.849 12.2172 18.8457 12.1705L18.8423 12.1738C18.8223 11.6428 18.8757 11.1987 18.7922 10.8614L18.7889 10.848C18.6954 10.504 18.4549 10.2803 17.8338 10.1968L17.8371 10.1801H17.8305C17.8839 9.41536 17.7804 8.68066 17.6034 7.9827L17.6 7.95932L17.5933 7.94262L17.59 7.91924L17.5833 7.90255L17.58 7.87917C17.5499 7.77564 17.5199 7.67212 17.4898 7.56859C17.2661 6.82054 17.0457 5.96562 16.3243 5.75522C15.6731 5.56821 14.4208 5.90216 13.7829 6.06246C12.4939 6.38974 12.3135 6.44985 12.2768 7.54856C12.0364 7.24466 11.4319 6.10922 11.1981 5.68843L8.29273 0.598978C8.21592 0.455378 8.13577 0.188214 7.96212 0.275042C7.9521 0.29508 7.9521 0.328475 7.96212 0.36855C8.03225 0.615675 8.31611 1.12662 8.39292 1.27022C8.93058 2.30548 12.1198 7.99271 12.1966 8.2699L12.1933 8.26656L12.2 8.28659C12.1466 8.21312 12.0664 8.16637 11.9963 8.08622L11.5755 7.63538C11.2015 7.248 10.4567 6.37638 10.1228 6.07248C9.96584 5.92888 9.86231 5.76858 9.70869 5.61496L8.45637 4.28583C7.99217 3.73814 7.30423 3.06022 6.79996 2.4925C6.66303 2.34222 5.65115 1.22347 5.52759 1.19008C5.47082 1.24351 5.45412 1.28024 5.45746 1.3103C5.47082 1.34369 5.50756 1.37375 5.55431 1.42384L10.253 6.72369C10.5837 7.0877 10.8942 7.45171 11.2148 7.82574C11.3384 7.9827 11.4453 8.06618 11.5555 8.22648L11.6089 8.24986L11.6189 8.26656C10.8976 8.18307 9.38142 7.71553 8.70683 7.88919C8.38624 7.96934 8.24264 8.13965 8.12909 8.40014C7.99217 8.70738 7.78178 9.81944 7.72167 10.2102C7.59143 11.0551 7.3276 11.4625 7.29755 11.9734C7.26081 12.608 7.65822 13.1757 7.92538 13.5697C8.5432 14.4848 9.39478 15.0358 10.3499 15.5801C10.5937 15.7171 10.8107 15.8373 11.0612 15.9575C11.2683 16.0544 11.6423 16.1879 11.8193 16.2981C11.7825 16.3783 11.7625 16.3816 11.6991 16.4384C9.6753 18.2017 8.12909 19.7045 6.49272 21.9153C5.97509 22.6132 5.4775 23.2845 5.00996 24.0626C3.5773 26.437 2.42182 28.9283 1.66709 31.6166C1.43666 32.4281 0.965783 34.5587 0.878955 35.407C0.778769 36.3788 0.70196 36.8497 0.648527 37.9116C0.561699 39.6582 0.601773 41.4115 0.802146 43.138C0.922369 44.19 1.11606 45.2219 1.32645 46.2471C1.81069 48.6015 2.70234 50.7956 3.7543 52.9062C4.62592 54.6561 5.40069 55.8349 6.51276 57.4145C7.15395 58.3229 7.99217 59.2914 8.89385 60.2131C9.06082 60.37 9.22112 60.5337 9.38142 60.6973V60.7006C10.233 61.5322 11.1146 62.3103 11.9195 62.9448C14.7714 65.2023 18.0141 66.8153 21.514 67.8873C23.0869 68.3682 25.852 68.976 27.5619 69.1263C28.6639 69.2231 30.0598 69.1864 31.1752 69.1463C31.6728 69.133 32.2239 69.0929 32.7949 69.0395C33.4929 68.9526 34.2009 68.8525 34.8053 68.7523C35.727 68.6354 36.6488 68.435 37.4937 68.2012C38.0413 68.0476 38.8996 67.7805 39.7913 67.4732C44.697 65.6665 49.3423 62.5174 52.6652 58.5233ZM29.1014 30.8953C29.0112 30.8585 28.6005 30.4678 28.507 30.3743L28.0661 29.9769C28.0094 29.9201 27.986 29.8834 27.9259 29.8266L20.619 23.0741C20.4687 22.9271 20.2616 22.0121 20.1882 21.7616C19.7941 20.4459 19.0961 18.5557 20.2383 17.3868C20.482 17.133 20.4987 17.0662 20.8761 16.8959C23.4375 15.7371 27.5084 15.1193 30.4138 15.1293L29.1014 30.8953ZM45.9928 17.5004C38.5055 11.8031 27.7789 10.6777 19.183 14.408C18.9191 14.5215 18.4883 14.6952 18.2546 14.8454C18.3147 15.1193 18.7722 15.5668 18.7121 16.3716C18.6887 16.6722 18.5818 16.9293 18.5384 17.2132C18.5017 17.4303 18.6152 17.8611 18.6653 18.0948C19.2965 21.0703 20.5021 24.4399 21.4672 27.3854C22.1351 29.4259 22.8665 31.3361 23.5778 33.3365C23.9351 34.3383 24.2624 35.3402 24.6064 36.3421C24.9136 37.237 25.3778 38.5395 25.4279 39.5513C25.4847 39.528 26.54 38.7098 27.0108 38.4326C27.1544 38.3491 27.4517 38.1988 27.5786 38.0953C27.5452 37.9317 26.9808 36.7328 26.8672 36.479L24.6832 31.6533C24.2156 30.5847 23.7314 29.5094 23.2372 28.4507C22.9867 27.9131 22.7696 27.3921 22.5125 26.8511C22.3889 26.5873 22.2887 26.3034 22.1652 26.0329C22.055 25.7858 21.8813 25.4385 21.8513 25.1746C22.0483 25.3149 22.1485 25.4518 22.3321 25.6121L23.314 26.5205C23.501 26.7142 23.6145 26.8144 23.8015 26.978C23.9618 27.1249 24.1355 27.3086 24.2824 27.4388L28.173 31.1057C28.33 31.266 28.5103 31.3929 28.6706 31.5532C28.8643 31.7435 28.9712 31.847 29.1582 32.0107C29.2984 32.1376 29.5088 32.4148 29.6691 32.4548C30.0565 27.8897 30.3771 23.3012 30.7311 18.7293C30.7912 17.9646 30.8513 17.1998 30.9081 16.4384C30.9181 16.2748 31.0083 14.2911 31.0951 14.1441L31.8765 16.2514C32.1437 16.9427 32.4176 17.6707 32.6647 18.3687C33.1656 19.7846 33.72 21.1639 34.2176 22.5932C34.9456 24.6871 35.7571 26.831 36.5218 28.9316C36.632 29.2355 37.2098 30.9153 37.3133 31.0389L37.8944 30.3543C38.9664 29.1487 40.1119 27.7327 41.1872 26.4904L42.6766 24.7472C42.8837 24.5067 43.0874 24.2863 43.2811 24.0425L46.8744 19.818C46.851 20.3256 45.208 28.9583 45.0443 29.8734C44.9074 30.6582 44.5 32.6619 44.4366 33.2663C44.6069 33.3699 44.7171 33.5235 44.8674 33.6303L46.9679 22.326C47.3386 22.5898 48.6577 24.126 48.9049 24.4667C51.0121 27.352 51.9071 29.0318 53.0592 32.555C54.0377 35.5372 54.3817 40.236 53.6771 43.492C53.5201 44.21 53.3231 45.1918 52.9924 45.8531C52.8722 46.0902 52.5583 46.2371 52.2878 46.0467C52.3012 46.9885 52.1409 48.2909 51.7969 49.1625C51.7 49.3996 51.4863 49.7804 51.4229 49.9941C51.9939 50.0408 52.6752 49.9941 53.263 50.0074C53.834 50.0208 54.4518 50.1009 54.9895 50.1009C55.2066 49.7202 55.8444 47.6831 55.998 47.1488C56.7127 44.6408 56.9598 42.9276 57.0901 40.2727C57.1435 39.1473 57.1468 37.5076 56.9732 36.4422C56.6058 34.168 56.1717 32.0374 55.447 30.0203C55.1164 29.0953 54.6221 28.1134 54.208 27.2652C53.9843 26.8077 53.7706 26.3969 53.5168 25.9594C51.3093 22.2592 49.506 20.1754 45.9928 17.5004ZM32.0368 15.3163C32.8183 15.3831 33.4094 15.4399 34.1207 15.5634C34.792 15.6803 35.3964 15.8506 36.0276 16.021C38.8796 16.7891 42.3594 18.4755 44.7037 20.2789C44.9208 20.4459 45.1746 20.683 45.375 20.8032C45.2948 20.9601 44.5968 21.7616 44.4299 21.9587L42.9672 23.6919C41.9152 24.9743 40.536 26.5038 39.5608 27.7361C39.4272 27.9064 39.2336 28.1301 39.0766 28.3038C38.913 28.4875 38.7493 28.7012 38.5823 28.8982L37.5938 30.0504L32.0368 15.3163ZM8.21258 56.1889C8.90386 57.0839 9.62187 57.9388 10.4467 58.7136C12.5273 60.6773 13.8931 61.8628 16.4145 63.2754C16.6616 63.4157 19.36 64.7181 19.7774 64.8316C19.8776 64.688 20.5121 64.0602 20.6557 63.9734C20.6156 63.7697 20.3518 63.3589 20.2516 63.1485C19.7674 62.1233 19.5069 61.4186 19.587 60.2531C19.8141 56.8802 20.6958 53.7811 21.8279 50.652L22.459 48.9321L22.3655 49.0089C22.3455 49.0323 22.3088 49.0891 22.2921 49.1191C22.2453 49.1959 22.2052 49.2627 22.1552 49.3462C21.6275 50.1844 20.8561 51.6238 20.4253 52.482C20.0746 53.18 19.0627 55.3874 18.8891 56.2156C18.8523 56.386 18.8557 56.3826 18.7789 56.4461C18.2946 55.344 18.2279 51.3399 18.3247 49.8271C18.3715 49.0624 18.8557 48.3043 18.8624 47.977C18.7087 47.8401 17.757 45.2185 17.6134 44.7877C17.0924 43.1914 16.0839 39.3209 15.79 37.6745C15.062 33.6303 14.5176 30.1572 14.0835 25.9761C13.9466 24.6403 13.813 23.2678 13.6226 21.9787C13.5258 21.3208 13.4724 20.6462 13.3989 19.975C13.3354 19.4073 13.1818 18.5256 13.1818 17.9946L13.1384 17.8444C11.325 18.746 8.1892 22.8436 6.97695 24.6837C6.13539 25.9561 5.98511 26.2266 5.32722 27.499C4.68937 28.7279 4.51237 29.3491 4.03148 30.6749C3.64075 31.7535 3.62072 31.8604 3.34353 32.9591C3.05633 34.0912 3.0363 34.3617 2.8426 35.4437C2.69232 36.3053 2.64891 37.207 2.5721 38.1421C2.42516 39.8686 2.59882 42.0627 2.89604 43.7525C3.30012 46.0634 3.98139 48.4746 4.95987 50.6152C5.94503 52.7692 6.72315 54.2553 8.21258 56.1889Z" fill="black"/>
<path fill-rule="evenodd" clip-rule="evenodd" d="M37.5007 68.2167C35.684 68.721 33.0591 69.085 31.1756 69.1451C30.0602 69.1852 28.6643 69.2219 27.5622 69.1251C25.8524 68.9748 23.0872 68.367 21.5143 67.8861C18.0145 66.8141 14.7718 65.2011 11.9198 62.9436C10.0898 61.4976 7.85895 59.3236 6.51311 57.4133C5.40105 55.8337 4.62628 54.6549 3.75466 52.905C2.7027 50.7944 1.81104 48.6003 1.32681 46.2459C1.11642 45.2207 0.922727 44.1888 0.802504 43.1368C0.602132 41.4103 0.562057 39.657 0.648885 37.9104C0.702318 36.8485 0.779127 36.3776 0.879313 35.4058C0.966141 34.5575 1.43702 32.4269 1.66744 31.6154C2.42218 28.9271 3.57766 26.4358 5.01032 24.0614C5.47786 23.2833 5.97545 22.612 6.49308 21.914C8.12945 19.7033 9.67566 18.2005 11.6994 16.4372C11.7629 16.3804 11.7829 16.3771 11.8196 16.2969C11.6426 16.1867 11.2686 16.0532 11.0616 15.9563C10.8111 15.8361 10.594 15.7159 10.3502 15.5789C9.39514 15.0346 8.54355 14.4836 7.92574 13.5685C7.65858 13.1745 7.26117 12.6068 7.29791 11.9722C7.32796 11.4613 7.59179 11.0539 7.72203 10.209C7.78214 9.81824 7.99253 8.70617 8.12945 8.39894C8.243 8.13845 8.3866 7.96814 8.70719 7.88799C9.38178 7.71433 10.8979 8.18187 11.6193 8.26536C11.5091 8.10506 11.3855 7.99485 11.2586 7.84124L10.4671 6.96294C10.397 6.88279 10.3603 6.816 10.2901 6.73919L5.56135 1.4193C5.4645 1.31244 5.40105 1.31578 5.52795 1.18888C5.65151 1.22227 6.66339 2.34102 6.80031 2.4913C7.30458 3.05902 7.99253 3.73694 8.45673 4.28463L9.70905 5.61376C9.86267 5.76738 9.9662 5.92768 10.1232 6.07128C10.4571 6.37518 11.2018 7.2468 11.5759 7.63418L11.9966 8.08502C12.0668 8.16517 12.1469 8.21192 12.2003 8.28539C12.1235 8.00821 8.98103 2.31764 8.44003 1.28572C8.34986 1.11541 7.89568 0.414103 7.96247 0.273842C8.13613 0.187014 8.21628 0.454177 8.29309 0.597777L11.1985 5.68723C11.4323 6.10801 12.0367 7.24346 12.2772 7.54736C12.3139 6.44865 12.4942 6.38854 13.7833 6.06126C14.4211 5.90096 15.6735 5.56701 16.3247 5.75402C17.046 5.96441 17.2664 6.81934 17.4902 7.56739C17.7373 8.39226 17.9009 9.27056 17.8341 10.1956C19.1165 10.3693 18.7826 11.1474 18.8527 12.3095C19.21 12.2094 19.5841 12.0023 19.9548 11.8654C20.3121 11.7318 20.7095 11.5815 21.0735 11.4613C22.396 11.0338 24.6936 10.4795 26.0895 10.3726C27.0212 10.2991 27.973 10.1388 28.9214 10.1288C31.406 10.0988 32.2676 10.1889 34.6621 10.4828C35.9177 10.6331 38.399 11.2776 39.5779 11.7051C39.9552 11.842 40.3126 11.9522 40.72 12.0925C42.8807 12.8439 45.8128 14.5403 47.6128 15.9162C48.7783 16.8046 49.8904 17.7496 50.8922 18.7749C53.103 21.0324 54.5657 22.9526 56.0819 25.8313C58.66 30.7304 59.5851 35.2689 59.4882 40.8526C59.4582 42.6826 59.1342 44.5828 58.7669 46.2493C58.1758 48.9376 56.7131 52.6211 55.2069 54.9655C54.6025 55.9072 54.0047 56.8022 53.3401 57.6772C49.503 62.7065 43.572 66.5236 37.5007 68.2167ZM8.87417 2.45122L10.8512 6.10468C10.9614 6.31507 11.1651 6.65904 11.2252 6.84939C11.0482 6.82935 10.6408 6.34178 10.5105 6.1915C10.1566 5.7774 9.49532 5.12285 9.16471 4.74214C8.961 4.51172 8.69049 4.22118 8.48678 3.99743L5.76506 1.06531C5.70829 1.04528 5.70495 1.00186 5.60142 0.968466L5.47786 1.07867L5.23407 1.28572C5.32424 1.49611 8.51684 5.04604 8.99439 5.60041L9.85265 6.59559C10.0664 6.84271 10.6007 7.39708 10.7076 7.59745C10.1165 7.57073 9.45859 7.36702 8.8174 7.48057C8.20626 7.58743 7.9057 7.65422 7.70533 8.14513C7.33798 9.04013 7.14095 10.5095 6.68009 11.5581C6.57323 12.1492 6.78362 13.1377 7.03742 13.5218C8.63038 15.3953 9.10794 15.7726 10.8746 16.4038L9.51536 17.596C8.30979 18.6814 6.79364 20.3745 5.86524 21.6836C4.3324 23.851 3.17692 25.8046 2.18173 28.3193C1.69416 29.5583 1.21995 30.8139 0.912709 32.2132C0.495266 34.1234 0.351666 34.5676 0.157973 36.618C-0.570046 44.3858 1.22663 50.5907 5.37433 56.8456C5.72832 57.3799 6.11237 57.8208 6.4864 58.3117C6.90384 58.8594 7.77546 59.8545 8.28307 60.3688C10.1532 62.269 10.8912 62.8935 13.1788 64.5199C13.6497 64.8538 14.1907 65.2412 14.7317 65.5451C17.223 66.9477 19.1232 67.8294 21.9318 68.6242C23.2409 68.9949 24.8839 69.2954 26.2431 69.4724C27.0747 69.5793 27.826 69.586 28.6643 69.6394C31.6732 69.8231 35.2432 69.3923 37.9582 68.6709C39.3241 68.3069 40.523 67.816 41.7486 67.305C43.5119 66.5704 45.1916 65.6319 46.7712 64.5867C49.1657 63.0004 51.6637 60.5993 53.477 58.4352C54.6993 56.9792 55.6444 55.4397 56.5294 53.7499C57.765 51.3955 57.9253 51.0682 58.8136 48.2931C59.5149 46.109 59.7921 44.0118 59.9624 41.6975C60.0225 40.8693 59.9925 39.9943 59.9925 39.1461C59.9858 36.2006 59.6485 33.9898 58.8671 31.2547C58.7736 30.9275 58.6767 30.5401 58.5498 30.2328C58.473 29.8655 58.2192 29.2243 58.0723 28.8536C56.9235 25.9048 55.808 23.9311 53.9513 21.4198C52.3049 19.1957 50.4113 17.3055 48.1872 15.6324C47.3189 14.9812 46.9182 14.6339 45.9297 14.0394C45.5056 13.7856 45.1382 13.5652 44.7241 13.3181C43.2247 12.4197 41.0673 11.5748 39.3675 10.9737C38.7764 10.76 36.9497 10.2758 36.3319 10.1622C35.1831 9.9585 34.1812 9.74143 32.9556 9.67464C32.3478 9.64125 31.76 9.56778 31.1389 9.5611C27.983 9.5277 25.4951 9.63123 22.3993 10.4594C21.895 10.5964 21.4075 10.7466 20.8998 10.8869C20.4023 11.0205 19.9214 11.2275 19.4371 11.3511C19.4071 10.7066 19.1499 9.92177 18.4052 9.79486C18.2983 8.70617 17.9444 6.07128 16.849 5.48352C16.2412 5.15625 14.9154 5.39001 14.2074 5.54029C13.6631 5.65718 12.9017 5.77406 12.4542 6.07462C12.2271 6.22824 12.2471 6.24828 12.0768 6.43529L8.63706 0.79815C8.5302 0.611135 8.25635 0.130242 8.13279 0C7.98585 0.0701303 7.8122 0.130242 7.69531 0.240447C7.82221 0.657889 8.64374 2.03044 8.87417 2.45122Z" fill="#FF5C00"/>
<path fill-rule="evenodd" clip-rule="evenodd" d="M11.9988 23.6243C11.1806 23.7379 10.7665 24.329 10.2756 24.9702C10.0418 25.2774 9.88149 25.5145 9.65774 25.8752C9.44735 26.2091 9.24698 26.493 9.03993 26.8203C7.41023 29.3784 6.22136 32.7747 5.74714 35.8404C5.21616 39.2567 5.47664 43.5514 6.6221 46.7773C7.31339 48.7343 7.93454 50.2972 9.01989 52.0739C9.2236 52.4045 9.42064 52.6984 9.64104 53.0156C9.86145 53.3362 10.0418 53.6301 10.2622 53.9206C10.8065 54.6486 11.401 55.3466 12.0121 56.0212C12.1624 56.1882 12.2559 56.2683 12.4129 56.4219C12.9472 56.9429 13.388 57.4038 13.9858 57.9347C14.48 58.3722 15.1279 58.8698 15.719 59.2505C15.9862 59.4208 16.3769 59.708 16.7042 59.7882C17.1483 59.8951 17.6526 59.6279 17.8463 59.4208C18.3906 58.8398 18.0533 57.6609 17.9398 56.816C17.6793 54.9158 17.5724 52.9755 17.6993 51.062C17.7327 50.561 18.0467 48.377 18.0433 48.3503C18.0166 48.1633 17.7394 47.482 17.6559 47.2215C17.5257 46.8241 17.3988 46.4234 17.2786 46.036C15.542 40.3821 14.3965 33.9402 13.7387 27.9924C13.6318 27.0173 13.5717 24.7264 13.0307 24.0885C12.7669 23.778 12.4362 23.5609 11.9988 23.6243Z" fill="black"/>
<path fill-rule="evenodd" clip-rule="evenodd" d="M10.3625 13.7497C10.2056 13.526 9.80816 13.5293 9.53432 13.4525C9.0601 13.3156 8.29535 13.0751 7.93468 12.7979C7.75434 12.661 7.64748 12.5007 7.5907 12.2803L7.51723 12.0632C7.48384 12.7612 8.20518 13.6529 8.51242 14.0002C8.87977 14.4143 9.59109 14.9219 10.1588 15.2625C11.6048 16.1275 12.7737 15.7534 13.2111 16.5716C13.4282 16.979 14.193 21.9683 14.3065 22.6629C14.3766 23.077 14.4702 23.4711 14.5436 23.8785C14.6204 24.2826 14.6672 24.7167 14.7407 25.1409C15.1514 27.5153 15.649 30.0333 16.1733 32.3543C16.8746 35.45 17.4791 38.6526 18.3707 41.7083C18.5845 42.443 19.5329 45.2115 19.9036 45.9362C20.0472 45.8827 20.3244 45.3851 20.4312 45.2248C20.6015 44.971 20.7485 44.764 20.9255 44.5202C21.4832 43.7521 21.8873 43.181 22.5084 42.4697C22.6888 42.266 22.8825 42.0189 23.0728 41.8352L24.2717 40.6363C24.3018 40.5528 23.7374 37.8979 23.6739 37.5673C23.4869 36.5754 23.183 35.6103 22.9158 34.6552C22.3882 32.745 21.8105 30.8915 21.2427 29.0281C20.331 26.0425 19.5863 23.5312 18.7514 20.5089C18.5444 19.7542 18.137 18.3349 17.9833 17.6436C17.7162 17.6269 17.4357 17.7772 17.1718 17.677C17.2019 17.6069 17.429 17.51 17.5091 17.4532C17.8731 17.2161 18.1303 16.9122 18.2038 16.4414C18.3173 15.7167 18.1804 15.2124 17.7796 14.6881C17.3789 14.1638 16.9347 14.5445 15.8394 14.3408C15.7024 14.3141 15.4954 14.2172 15.3919 14.2506C15.2984 14.284 15.2583 14.3709 15.0245 14.4276C14.6872 14.5078 14.3766 14.5278 14.026 14.5478C12.4598 14.6447 11.1039 14.7916 10.3625 13.7497Z" fill="white"/>
<path fill-rule="evenodd" clip-rule="evenodd" d="M44.8674 33.6298C45.0778 33.9303 45.5454 34.2743 45.9828 35.0224C46.9981 36.7522 46.9713 38.6357 47.8363 39.3437C48.0433 39.514 48.3339 39.6977 48.5576 39.8547C49.3057 40.3857 50.5012 41.6847 50.9855 42.4061C51.6634 43.4246 52.1242 44.5634 52.2879 46.0462C52.5584 46.2365 52.8723 46.0896 52.9925 45.8525C53.3231 45.1913 53.5202 44.2094 53.6771 43.4914C54.3818 40.2354 54.0378 35.5367 53.0593 32.5544C51.9072 29.0312 51.0122 27.3514 48.9049 24.4661C48.6578 24.1255 47.3387 22.5893 46.968 22.3254L44.8674 33.6298Z" fill="black"/>
<path fill-rule="evenodd" clip-rule="evenodd" d="M30.4138 15.1285C27.5084 15.1185 23.4375 15.7363 20.876 16.8952C20.4987 17.0655 20.482 17.1323 20.2382 17.3861C19.0961 18.5549 19.794 20.4451 20.1881 21.7609C20.2616 22.008 20.4686 22.9264 20.6189 23.0733L27.9258 29.8258C27.9859 29.8826 28.0093 29.9194 28.0661 29.9761L28.5069 30.3735C28.6004 30.467 29.0111 30.8578 29.1013 30.8945L30.4138 15.1285Z" fill="black"/>
<path fill-rule="evenodd" clip-rule="evenodd" d="M34.1195 15.5626C33.4082 15.439 32.8171 15.3822 32.0356 15.3154L37.5926 30.0495L38.5811 28.8973C38.7481 28.7003 38.9118 28.4866 39.0754 28.3029C39.2323 28.1292 39.426 27.9055 39.5596 27.7352C40.5348 26.5029 41.914 24.9734 42.966 23.691L44.4287 21.9578C44.5956 21.7607 45.2936 20.9592 45.3738 20.8023C45.1734 20.6821 44.9196 20.445 44.7025 20.278C42.3582 18.4746 38.8784 16.7882 36.0264 16.0201C35.3952 15.8498 34.7908 15.6794 34.1195 15.5626Z" fill="black"/>
<path fill-rule="evenodd" clip-rule="evenodd" d="M29.1012 30.8941C29.011 30.8574 28.6003 30.4667 28.5068 30.3732L28.066 29.9758C28.0092 29.919 27.9858 29.8823 27.9257 29.8255L20.6188 23.0729C20.4685 22.926 20.2615 22.011 20.188 21.7605C19.7939 20.4447 19.096 18.5545 20.2381 17.3857C20.4819 17.1319 20.4986 17.0651 20.8759 16.8948C23.4374 15.736 27.5083 15.1182 30.4137 15.1282L29.1012 30.8941ZM45.9926 17.4993C38.5054 11.802 27.7788 10.6766 19.1828 14.4068C18.919 14.5204 18.4882 14.694 18.2544 14.8443C18.3145 15.1182 18.772 15.5657 18.7119 16.3705C18.6885 16.671 18.5817 16.9282 18.5383 17.2121C18.5015 17.4291 18.6151 17.8599 18.6652 18.0937C19.2963 21.0692 20.5019 24.4388 21.467 27.3843C22.1349 29.4247 22.8663 31.335 23.5776 33.3353C23.9349 34.3372 24.2622 35.3391 24.6062 36.3409C24.9134 37.2359 25.3776 38.5383 25.4277 39.5502C25.4845 39.5268 26.5398 38.7087 27.0107 38.4315C27.1543 38.348 27.4515 38.1977 27.5784 38.0942C27.545 37.9305 26.9806 36.7316 26.8671 36.4778L24.683 31.6522C24.2155 30.5836 23.7312 29.5082 23.237 28.4496C22.9865 27.9119 22.7694 27.391 22.5123 26.85C22.3887 26.5861 22.2886 26.3023 22.165 26.0318C22.0548 25.7846 21.8811 25.4373 21.8511 25.1735C22.0481 25.3138 22.1483 25.4507 22.332 25.611L23.3138 26.5193C23.5008 26.713 23.6144 26.8132 23.8014 26.9769C23.9617 27.1238 24.1353 27.3075 24.2823 27.4377L28.1728 31.1045C28.3298 31.2648 28.5101 31.3917 28.6704 31.552C28.8641 31.7424 28.971 31.8459 29.158 32.0095C29.2982 32.1364 29.5086 32.4136 29.6689 32.4537C30.0563 27.8886 30.3769 23.3 30.7309 18.7282C30.791 17.9634 30.8511 17.1987 30.9079 16.4373C30.9179 16.2736 31.0081 14.29 31.0949 14.143L31.8764 16.2503C32.1435 16.9415 32.4174 17.6696 32.6645 18.3675C33.1654 19.7835 33.7198 21.1627 34.2174 22.592C34.9454 24.6859 35.7569 26.8299 36.5217 28.9305C36.6319 29.2344 37.2096 30.9142 37.3131 31.0377L37.8942 30.3531C38.9662 29.1476 40.1117 27.7316 41.187 26.4893L42.6764 24.746C42.8835 24.5056 43.0872 24.2852 43.2809 24.0414L46.8742 19.8169C46.8509 20.3245 45.2078 28.9572 45.0442 29.8722C44.9072 30.657 44.4998 32.6608 44.4364 33.2652C44.6067 33.3687 44.7169 33.5224 44.8672 33.6292L46.9677 22.3249C47.3384 22.5887 48.6575 24.1249 48.9047 24.4655C51.0119 27.3509 51.9069 29.0307 53.0591 32.5539C54.0375 35.5361 54.3815 40.2348 53.6769 43.4909C53.5199 44.2089 53.3229 45.1907 52.9923 45.8519C52.872 46.089 52.5581 46.236 52.2876 46.0456C52.301 46.9874 52.1407 48.2898 51.7967 49.1614C51.6999 49.3985 51.4861 49.7792 51.4227 49.993C51.9937 50.0397 52.675 49.993 53.2628 50.0063C53.8338 50.0197 54.4516 50.0998 54.9893 50.0998C55.2064 49.7191 55.8442 47.682 55.9979 47.1477C56.7125 44.6397 56.9596 42.9265 57.0899 40.2716C57.1433 39.1461 57.1467 37.5064 56.973 36.4411C56.6056 34.1669 56.1715 32.0363 55.4468 30.0192C55.1162 29.0941 54.622 28.1123 54.2079 27.2641C53.9841 26.8065 53.7704 26.3958 53.5166 25.9583C51.3091 22.2581 49.5058 20.1742 45.9926 17.4993ZM32.0367 15.3152C32.8181 15.382 33.4092 15.4388 34.1205 15.5623C34.7918 15.6792 35.3962 15.8495 36.0274 16.0198C38.8794 16.7879 42.3592 18.4744 44.7035 20.2777C44.9206 20.4447 45.1744 20.6818 45.3748 20.8021C45.2946 20.959 44.5967 21.7605 44.4297 21.9575L42.967 23.6908C41.915 24.9731 40.5358 26.5026 39.5606 27.7349C39.4271 27.9053 39.2334 28.129 39.0764 28.3027C38.9128 28.4863 38.7491 28.7001 38.5822 28.8971L37.5937 30.0492L32.0367 15.3152Z" fill="#FF5C00"/>
<path fill-rule="evenodd" clip-rule="evenodd" d="M11.9983 23.6242C12.4357 23.5608 12.7664 23.7779 13.0302 24.0884C13.5712 24.7263 13.6313 27.0172 13.7382 27.9924C14.3961 33.9401 15.5415 40.382 17.2781 46.0359C17.3983 46.4233 17.5252 46.824 17.6554 47.2214C17.7389 47.4819 18.0161 48.1632 18.0428 48.3502C18.0462 48.3769 17.7323 50.561 17.6989 51.0619C17.572 52.9754 17.6788 54.9157 17.9393 56.8159C18.0529 57.6608 18.3901 58.8397 17.8458 59.4208C17.6521 59.6245 17.1478 59.895 16.7037 59.7881C16.3764 59.708 15.9857 59.4208 15.7185 59.2504C15.1274 58.8697 14.4795 58.3721 13.9853 57.9347C13.3875 57.4037 12.9467 56.9428 12.4124 56.4219C12.2554 56.2682 12.1619 56.1881 12.0116 56.0211C11.4005 55.3465 10.8061 54.6486 10.2617 53.9205C10.0413 53.63 9.86096 53.3361 9.64056 53.0155C9.42015 52.6983 9.22311 52.4044 9.0194 52.0738C7.93405 50.2971 7.3129 48.7342 6.62161 46.7773C5.47615 43.5513 5.21567 39.2566 5.74665 35.8403C6.22087 32.7746 7.40974 29.3783 9.03944 26.8202C9.24649 26.4929 9.44686 26.209 9.65725 25.8751C9.881 25.5144 10.0413 25.2773 10.2751 24.9701C10.766 24.3289 11.1801 23.7378 11.9983 23.6242ZM8.21123 56.1881C8.90252 57.0831 9.62052 57.938 10.4454 58.7128C12.5259 60.6764 13.8918 61.862 16.4131 63.2746C16.6603 63.4148 19.3586 64.7173 19.7761 64.8308C19.8762 64.6872 20.5108 64.0594 20.6544 63.9725C20.6143 63.7688 20.3505 63.3581 20.2503 63.1477C19.766 62.1224 19.5056 61.4178 19.5857 60.2523C19.8128 56.8794 20.6944 53.7803 21.8265 50.6511L22.4577 48.9313L22.3642 49.0081C22.3442 49.0315 22.3074 49.0882 22.2907 49.1183C22.244 49.1951 22.2039 49.2619 22.1538 49.3454C21.6262 50.1836 20.8547 51.6229 20.4239 52.4812C20.0733 53.1792 19.0614 55.3866 18.8877 56.2148C18.851 56.3851 18.8543 56.3818 18.7775 56.4452C18.2933 55.3432 18.2265 51.3391 18.3234 49.8263C18.3701 49.0615 18.8543 48.3034 18.861 47.9762C18.7074 47.8392 17.7556 45.2177 17.612 44.7869C17.0911 43.1906 16.0825 39.3201 15.7886 37.6737C15.0606 33.6295 14.5163 30.1564 14.0821 25.9753C13.9452 24.6395 13.8116 23.2669 13.6213 21.9779C13.5244 21.32 13.471 20.6454 13.3975 19.9741C13.3341 19.4064 13.1805 18.5248 13.1805 17.9938L13.1371 17.8435C11.3237 18.7452 8.18786 22.8428 6.9756 24.6829C6.13404 25.9552 5.98376 26.2257 5.32587 27.4981C4.68802 28.7271 4.51102 29.3482 4.03013 30.674C3.63941 31.7527 3.61937 31.8595 3.34219 32.9583C3.05499 34.0904 3.03495 34.3609 2.84126 35.4429C2.69098 36.3045 2.64756 37.2062 2.57075 38.1412C2.42381 39.8678 2.59747 42.0618 2.89469 43.7516C3.29877 46.0626 3.98004 48.4738 4.95852 50.6144C5.94369 52.7684 6.7218 54.2545 8.21123 56.1881Z" fill="#FF5C00"/>
<path fill-rule="evenodd" clip-rule="evenodd" d="M32.5617 46.9571C32.5683 46.9538 32.5784 46.9471 32.5817 46.9437L32.6552 46.9103C32.6786 46.907 32.7487 46.8936 32.7787 46.887C32.8522 46.8703 32.9056 46.8536 32.9691 46.8269C33.1261 46.7667 33.1995 46.6933 33.3164 46.6365C33.2229 46.897 32.9157 47.084 32.5617 46.9571ZM32.7153 40.6888C33.303 40.6287 33.8574 40.4517 34.3483 40.2513C35.0196 39.9708 35.3335 39.6736 35.6741 39.5032C35.584 39.6936 34.4886 40.7823 34.3082 40.8558C34.375 40.7055 34.3617 40.7188 34.3283 40.6621C34.1947 40.8524 33.8307 41.0995 33.5134 41.153L33.6671 40.8691C33.5902 40.9025 33.1795 41.2932 32.6752 41.2799C32.8455 41.1363 33.0092 41.0161 33.1261 40.8257C32.9524 40.8057 32.8222 40.799 32.7153 40.6888ZM33.5769 36.2739C33.3799 36.1069 33.2129 35.8832 33.0392 35.7329C33.1895 36.7014 33.253 37.0821 33.1294 38.114C33.3064 38.0505 33.4734 37.917 33.6771 37.8335C33.8674 37.7567 34.0678 37.6932 34.2916 37.6498C34.6723 37.5763 35.3502 37.6264 35.6006 37.8301C34.4886 37.947 33.8641 38.0873 33.1361 38.675C32.899 38.8654 32.9324 38.842 32.7787 39.1493C32.4581 39.8005 32.2645 40.0443 31.847 40.6554C31.6199 40.9893 31.4062 41.2899 31.2726 41.7508C31.0689 42.4521 30.9119 43.14 31.0489 43.8847C31.1123 44.2254 31.109 44.2254 31.4396 44.3022C31.8003 44.3823 31.847 44.3656 32.0674 44.1786C32.2311 44.0383 32.4214 43.9415 32.5717 44.1819C32.4314 44.1853 32.3246 44.2053 32.2277 44.2654C31.8604 44.4925 32.221 44.6328 31.3394 44.5393C31.5298 44.9834 31.7435 45.1838 31.8871 45.4844C31.9472 45.6113 31.9739 45.7248 32.0474 45.8384C32.2611 45.7916 32.4014 45.7148 32.6351 45.7014C33.2363 45.6714 33.7372 45.4677 34.2114 45.1571C33.7038 45.648 33.6069 45.8751 32.7754 46.1222C32.5784 46.1823 32.3379 46.2858 32.1776 46.3226C32.211 46.5797 32.2611 46.7801 32.2811 47.0473C32.3045 47.428 32.2411 47.3979 32.4515 47.645L33.0125 48.2796C33.086 48.3497 33.1127 48.3998 33.1895 48.4666C33.9977 49.1512 34.5353 48.8673 35.4671 48.4499C35.8444 48.2796 36.155 48.0959 36.4823 47.9055C36.8062 47.7185 37.1669 47.5415 37.4841 47.3411L39.4511 46.2257C39.0471 46.75 36.0949 48.3964 35.7576 48.7003L35.6574 53.0785C35.9313 53.015 36.3253 52.8213 36.6025 52.7111C38.1955 52.0632 41.6652 51.0013 43.305 50.7308C43.2449 50.5237 43.1179 50.29 43.0411 50.0595C42.3833 48.1293 42.0192 47.074 41.6953 44.8966C40.9472 44.7129 40.6333 44.7563 39.9788 44.369C39.5613 44.1218 39.1205 43.671 38.9068 43.1868C38.5862 42.4587 38.7498 41.9745 38.7331 41.1797C38.7164 40.4717 38.5127 39.9741 38.2255 39.4732C37.8749 38.8687 37.6511 38.7118 37.1201 38.3244C36.6726 37.9971 36.1917 37.8235 35.6474 37.583C35.2099 37.3893 34.5554 37.0353 34.2014 36.7715C33.971 36.6012 33.7839 36.4476 33.5769 36.2739Z" fill="#FEFEFE"/>
<path fill-rule="evenodd" clip-rule="evenodd" d="M12.1767 10.9376C12.3504 10.7539 12.3437 10.617 12.5641 10.4734C12.7545 10.3431 13.0884 10.4133 13.3155 10.4734C14.2105 10.7005 13.6495 11.0912 13.5292 11.4285C13.6561 11.5387 13.7229 11.4853 13.8231 11.6322C13.9801 11.8626 14.0235 12.4972 13.8265 12.7877C13.6662 13.0215 13.4224 12.9847 13.1018 12.968C12.0198 12.9113 11.8695 13.2853 11.6123 12.6842C11.5055 12.4337 11.4621 12.2133 11.4287 11.9127C11.3919 11.5821 11.2717 11.3884 11.4988 11.1513C11.7593 10.8808 11.7559 10.9476 12.1767 10.9376ZM12.2068 9.70196C11.7459 9.73869 10.9478 9.91235 10.8075 10.2797C10.6739 10.6337 10.7775 11.7124 10.7908 12.1532C10.8109 12.9647 10.8075 13.1918 11.3652 13.5458C11.9496 13.9165 13.2621 13.7528 14.0035 13.6192C14.3574 13.5558 14.4877 13.5391 14.5378 13.1684C14.628 12.4805 14.5211 11.1714 14.4075 10.43C14.3508 10.0693 14.3074 9.96912 14.0302 9.82886C13.5526 9.58507 12.7812 9.65854 12.2068 9.70196Z" fill="white"/>
<path fill-rule="evenodd" clip-rule="evenodd" d="M13.4623 8.79669L14.0534 8.85013C14.0067 8.62972 13.8931 8.5696 14.0133 8.39929C14.217 8.11209 14.0167 8.13212 14.1369 7.87164C14.2772 7.73472 14.3106 7.83491 14.4809 7.77479C14.6545 7.71468 14.5477 7.53769 15.0152 7.4375C15.2389 7.39075 15.1855 7.34733 15.3358 7.31728L15.633 7.71802C15.7098 7.87164 15.8234 8.09539 15.8067 8.26237C16.0471 8.31246 16.0404 8.37257 16.0872 8.603C16.1339 8.84011 16.2208 8.85013 16.0838 9.0505C15.967 9.22415 15.967 9.27091 15.7332 9.321C15.3859 9.39447 15.7365 9.498 15.3057 9.44122C15.3759 9.71507 15.4627 9.92212 15.5195 10.2394C15.8033 10.2294 16.4211 10.0724 16.6048 9.93548C16.9922 9.64827 16.892 9.34438 16.8319 8.80671C16.7618 8.19558 16.5013 6.96663 16.1406 6.7028C15.6798 6.36551 14.3673 6.76959 13.8664 6.94325C13.449 7.08685 13.2085 7.14362 13.1985 7.65123C13.1918 7.96849 13.3221 8.55959 13.4623 8.79669Z" fill="white"/>
<path fill-rule="evenodd" clip-rule="evenodd" d="M10.153 12.7837C10.1229 12.2127 10.1763 11.9889 9.92588 11.7284C9.63868 11.7385 9.45834 11.7351 9.33144 11.5114C9.26131 11.3845 9.28803 11.331 9.33812 11.2041C9.44165 10.9403 9.39155 11.0572 9.31808 10.8668C9.23459 10.6564 9.37819 10.3258 9.46168 10.1689C9.60194 9.91172 9.90584 10.0587 10.0895 9.92842C10.36 9.69465 9.9359 9.55439 11.0346 9.0902L11.2116 8.97999C10.5971 8.88649 10.1897 8.68945 9.4884 8.68945C8.87058 8.68945 8.77374 9.0735 8.65017 9.60783C8.53663 10.0987 8.47318 10.603 8.40639 11.1106C8.33626 11.6683 8.31288 12.1826 8.77374 12.3963C9.08097 12.5399 9.7756 12.737 10.153 12.7837Z" fill="white"/>
<path fill-rule="evenodd" clip-rule="evenodd" d="M16.047 12.0631C16.0403 11.8728 15.9868 11.7158 16.0369 11.5488C16.2607 11.4921 16.2273 11.5689 16.3542 11.6724C16.5145 11.6156 16.5779 11.5088 16.775 11.6223C17.0021 11.7526 16.8752 11.7559 17.2258 11.7526C17.9471 11.7459 17.4262 12.9348 16.992 13.1251C16.8518 13.1852 16.6314 13.1218 16.4611 13.1017C16.2707 13.0817 16.2006 13.0283 16.1438 12.8713C15.9134 12.8646 15.8633 12.8913 15.7531 12.7578C15.7531 12.7511 15.7297 12.2401 16.047 12.0631ZM15.6128 10.8843C15.6128 11.5589 15.6662 12.2769 15.6495 12.9915C15.6429 13.2186 15.5961 13.429 15.5928 13.6394C16.0904 13.7262 16.9486 13.803 17.4529 13.6895C17.7902 13.6127 17.8703 13.5325 17.9238 13.1852C18.0173 12.5908 17.9839 11.9028 17.9371 11.3051C17.9071 10.9243 17.8269 10.8375 17.4329 10.7874C17.0188 10.734 15.9635 10.7273 15.6128 10.8843Z" fill="white"/>
<path fill-rule="evenodd" clip-rule="evenodd" d="M32.2678 31.445C32.1944 31.8992 31.837 32.4903 31.3628 32.4502C30.8819 32.4135 30.6949 31.6721 30.7817 31.1211C31.0322 29.5348 32.5083 29.9957 32.2678 31.445ZM32.5283 27.3775C32.3246 25.5975 34.0177 25.3337 34.2048 27.0335C34.2749 27.6513 33.9543 28.3159 33.5335 28.4695C32.9424 28.6799 32.5884 27.8984 32.5283 27.3775ZM32.201 23.3433C32.0441 24.0246 31.2927 24.4186 31.0589 23.5704C30.9955 23.3299 31.0088 23.0695 31.0723 22.8357C31.4096 21.5834 32.4548 22.2212 32.201 23.3433ZM29.6797 35.6261C29.7699 35.566 30.2341 35.005 31.1057 34.3905C32.2478 33.589 33.6337 33.1549 35.073 32.9845C35.7844 32.9011 35.564 32.9679 35.9914 32.5571C36.2051 32.3534 36.3888 32.0361 36.6326 31.8558C36.6092 31.632 36.0782 30.1159 35.9647 29.7786C35.7376 29.0906 35.5172 28.406 35.2901 27.7281L31.9105 17.4858C31.7034 16.8579 31.483 16.0364 31.2259 15.4653L29.6797 35.6261Z" fill="#FFDB64"/>
<path fill-rule="evenodd" clip-rule="evenodd" d="M43.3836 32.5351C43.26 33.0728 42.9328 33.5236 42.4853 33.6739C41.2864 34.0713 41.5268 31.6802 42.5955 31.3896C43.23 31.216 43.5172 31.9473 43.3836 32.5351ZM41.1528 28.4041C41.4868 28.3006 41.8074 28.4575 41.9543 28.6946C42.3617 29.3558 41.784 30.6282 40.7921 30.892C39.3027 31.2894 39.7769 28.8282 41.1528 28.4041ZM44.0749 25.7324C45.04 25.5221 44.7228 27.4356 43.791 27.6427C42.8192 27.8531 43.1498 25.9328 44.0749 25.7324ZM43.0597 35.5273C43.1565 34.9362 43.3302 34.2683 43.4671 33.6705C43.604 33.0728 43.7376 32.4716 43.8712 31.8638C44.0415 31.0991 46.289 21.2742 46.2656 21.0037L42.4519 25.4686C42.0278 25.9629 41.617 26.4538 41.1795 26.9547C40.712 27.4924 40.024 28.344 39.5866 28.8148L37.3658 31.4264C37.1988 31.6334 36.2203 32.7522 36.1201 32.9258C37.7164 32.9726 38.745 33.213 40.0374 33.7741C40.8456 34.1247 41.6504 34.5488 42.3651 35.0431L43.0597 35.5273Z" fill="#FFDB64"/>
<path fill-rule="evenodd" clip-rule="evenodd" d="M27.1865 35.4059C27.0329 34.3774 28.4889 34.6646 28.5223 35.8401C28.5357 36.3444 28.2151 36.7217 27.7475 36.3945C27.4069 36.154 27.25 35.8234 27.1865 35.4059ZM26.6088 32.2801C26.3683 31.2248 27.7809 31.5287 27.9212 32.5139C27.988 33.0015 27.7108 33.3321 27.25 33.0816C26.9895 32.9414 26.6856 32.6208 26.6088 32.2801ZM24.7887 29.8022C25.3097 29.5818 25.8206 30.7039 25.3631 30.941C24.8922 31.1848 24.2544 30.0293 24.7887 29.8022ZM22.6013 26.2556L23.336 27.912C25.0191 31.6957 26.7991 35.5028 28.5023 39.2765C28.6492 37.8371 28.8897 37.3462 29.3639 36.174C29.434 36.0071 29.5643 34.0635 29.5843 33.7328C29.601 33.4724 29.4908 33.4122 29.3739 33.282L28.4121 32.2801C28.3052 32.1599 28.1917 32.0731 28.0848 31.9562L22.6013 26.2556Z" fill="#FFDB64"/>
<path fill-rule="evenodd" clip-rule="evenodd" d="M47.6728 60.1595C47.8398 60.1027 49.3058 58.6166 49.5362 58.3829C50.7351 57.1573 51.8038 55.7881 52.7455 54.3253C52.9192 54.0548 54.0179 52.2916 54.048 52.0244C52.2379 51.7739 50.6349 51.647 48.7581 51.657C45.7525 51.6704 41.3844 51.7105 38.6093 52.7558C37.8913 53.0263 37.3002 53.26 36.6256 53.6073C35.8976 53.9814 34.6319 54.7194 34.0007 55.197C33.7135 55.414 33.4731 55.6044 33.2059 55.8181L29.4289 59.0909C28.4337 59.9825 26.9209 61.6823 26.0526 62.7243C25.5784 63.2953 24.0355 65.3792 23.8018 66.1039C24.0455 66.2542 26.1929 66.518 26.6571 66.5814C29.5124 66.9788 32.9321 66.8019 35.7707 66.154C37.8412 65.6798 38.8931 65.3024 40.7866 64.5209C42.0457 64.0033 42.9373 63.5091 44.0561 62.8144C44.2664 62.6842 44.921 62.3002 45.0279 62.1766C45.3718 62.0497 47.5759 60.3699 47.6728 60.1595Z" fill="#FFDB64"/>
<path fill-rule="evenodd" clip-rule="evenodd" d="M18.6387 49.8973C18.5385 50.8824 18.6687 54.6962 18.8958 55.2305L19.6405 53.4038C20.1582 52.1715 20.776 51.1596 21.4272 50.0309C21.8346 49.3195 22.4524 48.5114 22.9634 47.8635C23.127 47.6665 23.294 47.4527 23.4576 47.2691C23.6847 47.0086 24.2491 46.3006 24.4862 46.1603L23.471 47.9704C22.5827 49.5633 21.7411 52.3952 21.2936 54.1886C21.0131 55.3073 19.9177 60.4135 20.2316 61.5022C20.3652 61.9664 20.8728 63.1352 21.15 63.379L22.9667 61.7793C23.5144 61.2116 26.5567 58.7738 27.0643 58.3997C27.6053 57.999 28.0996 57.625 28.6339 57.2409C29.1916 56.8402 29.6859 56.5096 30.2436 56.1255C30.7645 55.7648 31.3356 55.3975 31.9033 55.0602L33.6065 54.0416C33.5731 53.8446 33.316 53.3203 33.2291 53.1132L32.0803 50.4483C30.6209 47.072 29.1916 43.4954 27.7089 40.1091C27.6521 39.9822 27.5987 39.7851 27.5052 39.7017C25.8922 40.5766 23.8183 42.1328 22.6094 43.4052C20.9797 45.1251 20.5923 45.8297 19.4836 47.7967C19.2131 48.2809 18.6854 49.4097 18.6387 49.8973Z" fill="#FFDB64"/>
<path fill-rule="evenodd" clip-rule="evenodd" d="M32.7147 35.0766L32.7949 35.2402C32.8249 35.2836 32.855 35.3203 32.8884 35.3638C33.0353 35.5474 33.199 35.6443 33.3593 35.8012C33.4528 35.8948 33.4995 35.9582 33.5763 36.0217C35.6936 37.7649 38.1849 37.9118 38.8862 39.792C39.2703 40.8206 38.599 41.8725 39.0098 42.9779C39.2836 43.7226 40.1252 44.4039 41.0369 44.5842C42.2157 44.818 42.9404 44.7545 43.9256 45.3256C45.1178 46.0202 45.8926 47.2993 45.9493 48.7386C45.9827 49.5267 45.8759 49.677 45.7356 50.3182C46.143 50.2882 46.5504 50.2214 46.9646 50.1813C47.5924 50.1178 47.8495 50.1913 48.0365 49.9408C48.3972 49.4499 48.7111 48.7787 48.798 48.0507C48.9349 46.9152 48.4907 45.87 47.9531 44.9649C47.746 44.6143 47.6325 44.5208 47.382 44.2302C46.7041 43.4321 45.9794 43.0347 45.1378 42.477C44.8573 42.29 44.6336 42.1263 44.3764 41.9293C43.7486 41.4451 42.3927 39.8788 42.4662 38.523L42.543 38.7868C42.6599 39.3011 42.8803 39.8488 43.1508 40.2862C43.9857 41.6354 44.4499 41.8658 45.6421 42.6273C46.9879 43.4822 48.6377 44.6777 49.0818 46.4143C49.2588 47.0989 49.3289 47.7902 49.1252 48.4881C48.9082 49.2295 48.3972 49.8073 48.287 50.0711C48.8414 50.0243 49.4325 50.0043 49.9935 49.9976C50.5245 49.9909 50.6147 49.9676 51.0354 49.3431C51.3894 48.8188 51.7668 47.513 51.8603 46.7483C52.2076 43.9464 50.4477 41.6254 48.4072 40.0091C47.569 39.3445 47.185 39.1341 46.8744 38.1256C46.4135 36.6261 46.4169 36.2654 45.5786 35.0999C45.5085 35.0031 45.4651 34.9296 45.395 34.8461C45.1879 34.5923 44.5768 33.9378 44.3263 33.8042C44.2829 34.2417 44.0324 35.5007 43.9256 36.0617C43.8521 36.4491 43.9523 36.3857 44.1426 36.6428C44.3764 36.9534 45.3649 38.4194 45.4083 38.8502C45.3048 38.7434 45.258 38.6632 45.1445 38.5463L44.2729 37.6747C43.054 36.5727 41.6714 35.5074 40.1352 34.8762C39.0064 34.4087 37.8676 33.9645 36.4784 33.9177C35.737 33.8944 34.9956 33.901 34.301 34.0613C33.9971 34.1315 32.7181 34.4788 32.5845 34.609C31.8331 34.7727 30.9214 35.514 30.5541 35.9114C30.2836 36.202 30.0631 36.5159 29.8928 36.8833C28.8743 39.0673 28.6438 41.3148 29.6323 43.4955C29.6858 43.048 29.619 42.4436 29.6691 41.9293C29.7826 40.7905 30.2268 39.0339 30.8713 38.2124C30.9247 38.0655 30.9982 38.0321 31.0984 37.9085C31.1719 37.8116 31.2487 37.7315 31.3622 37.6614L30.9515 38.3293C30.9214 38.4462 30.7811 38.71 30.7244 38.8436C30.514 39.3211 30.2869 40.0024 30.2168 40.52C30.1032 41.3649 30.0097 42.4336 30.1032 43.3152C30.1767 43.1649 30.2101 42.9479 30.2669 42.7775C30.9682 40.6402 32.7815 39.5849 32.9385 37.5779C32.9919 36.91 32.8951 35.9782 32.7114 35.3203C32.6513 35.1033 32.6813 35.12 32.7147 35.0766Z" fill="#FF5C00"/>
<path fill-rule="evenodd" clip-rule="evenodd" d="M14.6375 7.7111C14.908 7.54078 15.0582 7.54746 15.3321 7.43726C15.3788 7.53744 15.6861 7.94153 15.6927 8.19533C15.5926 8.3022 15.1851 8.50257 15.0449 8.51259C14.9313 8.22205 15.0649 8.19533 14.7076 8.09848L14.6375 7.7111Z" fill="#262626"/>
<path fill-rule="evenodd" clip-rule="evenodd" d="M14.2214 8.85028C14.188 8.81689 14.198 8.83359 14.168 8.78683C13.9843 8.50631 14.1646 8.44954 14.2047 8.32932C14.3216 7.97199 14.0143 7.93859 14.5387 7.90186C14.709 8.29926 14.4618 8.07551 14.8759 8.28924C14.9461 8.65659 14.7691 8.77347 14.6088 8.94713L14.2214 8.85028Z" fill="#262626"/>
<path fill-rule="evenodd" clip-rule="evenodd" d="M14.7546 8.99412C14.8114 8.87724 14.8348 8.8906 14.925 8.76703C15.0619 8.58336 14.9216 8.6969 15.142 8.62343C15.2823 8.57334 15.486 8.45646 15.6329 8.37965C15.9335 8.23271 15.9368 8.48985 15.9903 8.71026C16.0303 8.88392 16.0771 8.82381 15.9869 8.99078C15.8099 9.31806 15.8433 9.17446 15.5628 9.23457C15.4459 9.25795 15.4893 9.28132 15.3725 9.32474C15.2322 9.25795 15.2289 9.20451 15.0853 9.13772C14.9717 9.08763 14.8615 9.06425 14.7546 8.99412Z" fill="#262626"/>
<path fill-rule="evenodd" clip-rule="evenodd" d="M9.51457 10.9312C9.35427 10.6773 9.41104 10.6005 9.53794 10.32C9.63145 10.1163 9.80177 10.0662 10.0823 10.0996C10.0021 10.2833 10.0021 10.4336 9.8552 10.5605C9.76837 10.6339 9.71494 10.6339 9.64815 10.7174L9.51457 10.9312Z" fill="#262626"/>
<path fill-rule="evenodd" clip-rule="evenodd" d="M10.0899 11.7088C9.91287 11.4884 9.81268 11.6855 9.58893 11.5819C9.41528 11.5018 9.3919 11.3448 9.49877 11.1879C9.66574 10.9374 9.70582 10.8406 9.94293 10.6469C10.0231 10.5801 10.0197 10.5467 10.0832 10.4966L10.0899 11.7088Z" fill="#262626"/>
<path fill-rule="evenodd" clip-rule="evenodd" d="M31.6316 48.2441C31.5181 48.0638 30.5396 45.7061 30.4695 45.5191C30.0921 44.5039 30.4328 43.2014 30.8335 42.3499C30.7433 43.9662 30.6565 43.8092 31.4112 45.2319C31.6717 45.7261 31.7719 45.9966 31.802 46.6311C31.8521 47.6597 31.6283 48.1106 31.6316 48.2441Z" fill="#262626"/>
<path fill-rule="evenodd" clip-rule="evenodd" d="M41.9182 44.9106C44.0889 45.091 45.2978 46.4969 45.3947 48.4105C45.4247 49.0016 45.368 50.0001 45.0841 50.4075L43.8986 50.6112C43.5679 50.0469 43.0269 48.5908 42.7832 47.9196C42.6128 47.4454 42.4559 46.9578 42.3123 46.4635C42.182 46.0194 41.9683 45.3615 41.9182 44.9106Z" fill="#262626"/>
<path fill-rule="evenodd" clip-rule="evenodd" d="M32.2578 47.863L33.0058 48.8716C33.1027 49.0052 33.293 49.1955 33.4299 49.3191C33.7205 49.5796 33.8006 49.4593 34.021 49.5729C33.8808 50.5848 34.3182 50.5547 34.5387 51.2961C34.719 51.9106 34.6756 52.8022 33.9609 52.9258C33.8674 52.6219 32.388 49.8334 32.1008 49.2289C31.8503 48.6979 31.9171 49.0753 32.2578 47.863Z" fill="#262626"/>
<path fill-rule="evenodd" clip-rule="evenodd" d="M35.2893 53.2856C35.0489 53.3824 34.5513 53.6496 34.3242 53.6863L34.2507 53.496C34.4344 53.2054 34.6749 53.1186 34.8151 52.4874C34.912 52.0399 34.8251 51.5056 34.6849 51.1149C34.5246 50.6807 34.3275 50.4336 34.5279 49.8726C34.6849 49.4217 34.8518 49.2013 35.2292 49.041L35.2426 51.1316C35.2693 51.8162 35.3294 52.6076 35.2893 53.2856Z" fill="#262626"/>
<path fill-rule="evenodd" clip-rule="evenodd" d="M54.4614 51.2427C53.8837 51.3061 50.3304 51.2059 49.4121 51.2026C47.7356 51.1959 44.7233 51.3763 42.9567 51.5499C42.2988 51.6134 41.5241 51.757 40.9062 51.787C41.1734 51.6167 42.6562 51.1892 43.0903 51.0991C43.9118 50.9354 44.7267 50.7918 45.5749 50.675C49.215 50.1607 51.3724 50.2943 54.8288 50.4011C54.8121 50.5581 54.5416 51.1158 54.4614 51.2427Z" fill="#262626"/>
<path fill-rule="evenodd" clip-rule="evenodd" d="M25.358 62.4104C25.3012 62.5607 24.8404 63.0816 24.7034 63.262C24.5899 63.4123 24.5031 63.5158 24.3862 63.6727C24.2893 63.7996 24.1658 64.0234 24.0355 64.0969C24.0021 64.2872 23.0904 65.3458 22.8968 65.8969C22.5294 65.8735 20.5324 65.2089 20.2886 65.0486C20.4722 64.541 23.2808 61.8928 23.6949 61.5288C24.3662 60.931 25.3413 60.1595 26.0727 59.5484C26.2363 59.4115 26.3899 59.2913 26.5602 59.161C26.6504 59.0909 26.7072 59.0341 26.7973 58.964L28.5473 57.6616C28.8879 57.4345 29.2085 57.164 29.5491 56.9202C30.551 56.2055 32.8686 54.7628 33.8805 54.2786C34.3113 54.0716 35.9677 53.2734 36.3083 53.21L34.7822 54.1985C33.3295 55.1603 30.3306 57.4512 29.125 58.6033L28.4604 59.2111C28.2367 59.4148 28.0363 59.6252 27.8159 59.8389L26.273 61.4185C26.1094 61.6022 25.4548 62.367 25.358 62.4104Z" fill="#262626"/>
<path fill-rule="evenodd" clip-rule="evenodd" d="M26.273 61.4185L27.8159 59.8389C28.0363 59.6252 28.2367 59.4148 28.4604 59.2111L29.125 58.6033C30.3306 57.4512 33.3295 55.1603 34.7822 54.1985L36.3083 53.21C35.9677 53.2734 34.3113 54.0716 33.8805 54.2786C32.8686 54.7628 30.551 56.2055 29.5491 56.9202C29.2085 57.164 28.8879 57.4345 28.5473 57.6616L26.7973 58.964C26.5569 59.1577 26.3098 59.3514 26.0727 59.5484C25.3413 60.1595 24.3662 60.931 23.6949 61.5288C23.2808 61.8928 20.4722 64.541 20.2886 65.0486C20.5324 65.2089 22.5294 65.8735 22.8968 65.8969C23.1138 65.2824 24.2192 63.8965 24.7034 63.262C25.1977 62.6141 25.7287 62.0263 26.273 61.4185Z" fill="white"/>
<path fill-rule="evenodd" clip-rule="evenodd" d="M45.3947 48.4105C45.2978 46.4969 44.0889 45.091 41.9182 44.9106C41.9683 45.3615 42.182 46.0194 42.3123 46.4635C42.4559 46.9578 42.6128 47.4454 42.7832 47.9196C43.0269 48.5908 43.5679 50.0469 43.8986 50.6112L45.0841 50.4075C45.368 50.0001 45.4247 49.0016 45.3947 48.4105Z" fill="#EB6320"/>
<path fill-rule="evenodd" clip-rule="evenodd" d="M54.4614 51.2427C54.5416 51.1158 54.8121 50.5581 54.8288 50.4011C51.3724 50.2943 49.215 50.1607 45.5749 50.675C44.7267 50.7918 43.9118 50.9354 43.0903 51.0991C42.6562 51.1892 41.1734 51.6167 40.9062 51.787C41.5241 51.757 42.2988 51.6134 42.9567 51.5499C44.7233 51.3763 47.7356 51.1959 49.4121 51.2026C50.3304 51.2059 53.8837 51.3061 54.4614 51.2427Z" fill="#FEFEFE"/>
<path fill-rule="evenodd" clip-rule="evenodd" d="M32.2578 47.863C31.9171 49.0753 31.8503 48.6979 32.1008 49.2289C32.388 49.8334 33.8674 52.6219 33.9609 52.9258C34.6756 52.8022 34.719 51.9106 34.5387 51.2961C34.3182 50.5547 33.8808 50.5848 34.021 49.5729C33.8006 49.4593 33.7205 49.5796 33.4299 49.3191C33.293 49.1955 33.1027 49.0052 33.0058 48.8716L32.2578 47.863Z" fill="#FF5C00"/>
<path fill-rule="evenodd" clip-rule="evenodd" d="M31.6316 48.2441C31.6283 48.1106 31.8521 47.6597 31.802 46.6311C31.7719 45.9966 31.6717 45.7261 31.4112 45.2319C30.6565 43.8092 30.74 43.9662 30.8335 42.3499C30.4328 43.2014 30.0921 44.5039 30.4695 45.5191C30.5396 45.7061 31.5181 48.0638 31.6316 48.2441Z" fill="#FF5C00"/>
<path fill-rule="evenodd" clip-rule="evenodd" d="M35.2893 53.2856C35.3294 52.6076 35.2693 51.8162 35.2426 51.1316L35.2292 49.041C34.8518 49.2013 34.6849 49.4217 34.5279 49.8726C34.3275 50.4336 34.5246 50.6807 34.6849 51.1149C34.8251 51.5056 34.912 52.0399 34.8151 52.4874C34.6749 53.1186 34.4344 53.2054 34.2507 53.496L34.3242 53.6863C34.5513 53.6496 35.0489 53.3824 35.2893 53.2856Z" fill="#FF5C00"/>
<path fill-rule="evenodd" clip-rule="evenodd" d="M12.43 12.0865C12.5937 12.0231 12.7306 11.9129 12.9243 11.816C13.1714 11.6958 13.1213 11.6357 13.2749 11.4386C13.6723 10.9377 13.7859 10.7741 13.3183 10.6472C12.7406 10.4936 12.577 10.537 12.3332 10.9711C12.2029 11.2015 12.1862 11.2683 12.1963 11.5756C12.1996 11.7726 12.2931 11.963 12.43 12.0865Z" fill="#FF5C00"/>
<path fill-rule="evenodd" clip-rule="evenodd" d="M41.604 29.2644C41.811 28.5931 41.2667 28.6699 40.9294 28.9204C40.6856 29.0974 40.4385 29.4113 40.3283 29.772C40.1646 30.3063 40.6355 30.4399 41.0329 30.1527C41.3268 29.9423 41.4671 29.7152 41.604 29.2644Z" fill="#FF5C00"/>
<path fill-rule="evenodd" clip-rule="evenodd" d="M32.7137 40.6897C32.8205 40.7999 32.9508 40.8066 33.1244 40.8266C33.0075 41.017 32.8439 41.1372 32.6736 41.2808C33.1779 41.2941 33.5886 40.9034 33.6654 40.87L33.5118 41.1539C33.8291 41.1004 34.1931 40.8533 34.3267 40.663C34.3601 40.7197 34.3734 40.7064 34.3066 40.8567C34.487 40.7832 35.5823 39.6945 35.6725 39.5042C35.3319 39.6745 35.0179 39.9717 34.3467 40.2522C33.8558 40.4526 33.3014 40.6296 32.7137 40.6897Z" fill="black"/>
<path fill-rule="evenodd" clip-rule="evenodd" d="M33.191 26.2592C32.6266 26.5297 32.8003 28.1727 33.398 27.9323C33.6418 27.8354 33.7387 27.2777 33.7086 26.9471C33.6785 26.6499 33.4682 26.1256 33.191 26.2592Z" fill="#FF5C00"/>
<path fill-rule="evenodd" clip-rule="evenodd" d="M12.2996 12.2473C12.2528 12.1705 12.2428 12.1204 12.2028 12.0569C12.146 11.9601 12.136 11.9901 12.0925 11.9133C11.9189 11.6195 12.1894 11.1753 12.0157 11.1219C11.8521 11.0684 11.7386 11.1653 11.6584 11.2387C11.4046 11.4859 11.7352 12.7582 11.9222 12.8451C12.2228 12.9853 12.7003 12.2773 12.8206 12.0536C12.6302 12.1371 12.5801 12.274 12.2996 12.2473Z" fill="#FF5C00"/>
<path fill-rule="evenodd" clip-rule="evenodd" d="M42.9131 32.4645C43.1535 31.3791 42.3454 31.5361 42.0882 32.4478C41.7843 33.5264 42.7161 33.3394 42.9131 32.4645Z" fill="#FF5C00"/>
<path fill-rule="evenodd" clip-rule="evenodd" d="M12.5203 12.7812C13.2616 12.8213 13.7125 12.9615 13.7693 12.2969C13.8193 11.7292 13.649 11.6658 13.3585 11.5723C13.2984 11.7159 13.265 11.7626 13.1514 11.8595C13.0112 11.9797 13.0379 11.9797 12.9344 12.15C12.8008 12.3804 12.6505 12.5641 12.5203 12.7812Z" fill="#FF5C00"/>
<path fill-rule="evenodd" clip-rule="evenodd" d="M31.857 31.0807C31.8536 29.9519 31.0856 30.3961 31.0689 31.2978C31.0455 32.3798 31.857 32.0225 31.857 31.0807Z" fill="#FF5C00"/>
<path fill-rule="evenodd" clip-rule="evenodd" d="M14.7546 8.99412C14.8615 9.06425 14.9717 9.08763 15.0853 9.13772C15.2289 9.20451 15.2322 9.25795 15.3725 9.32474C15.4893 9.28132 15.4459 9.25795 15.5628 9.23457C15.8433 9.17446 15.8099 9.31806 15.9869 8.99078C16.0771 8.82381 16.0303 8.88392 15.9903 8.71026C15.9368 8.48985 15.9335 8.23271 15.6329 8.37965C15.486 8.45646 15.2823 8.57334 15.142 8.62343C14.9216 8.6969 15.0619 8.58336 14.925 8.76703C14.8348 8.8906 14.8114 8.87724 14.7546 8.99412Z" fill="#FF5C00"/>
<path fill-rule="evenodd" clip-rule="evenodd" d="M14.6375 7.7111L14.7076 8.09848C15.0649 8.19533 14.9313 8.22205 15.0449 8.51259C15.1851 8.50257 15.5926 8.3022 15.6927 8.19533C15.6861 7.94153 15.3788 7.54078 15.3321 7.43726C15.0582 7.54746 14.908 7.54078 14.6375 7.7111Z" fill="#FF5C00"/>
<path fill-rule="evenodd" clip-rule="evenodd" d="M44.2629 26.5768C44.51 25.7186 43.7787 25.8722 43.5316 26.6536C43.4481 26.9175 43.4748 27.3883 43.8355 27.1813C43.9958 27.0911 44.1928 26.8273 44.2629 26.5768Z" fill="#FF5C00"/>
<path fill-rule="evenodd" clip-rule="evenodd" d="M15.8865 12.7046C16.157 12.7347 16.1269 12.6445 16.2906 12.8382C16.4008 12.9718 16.4776 12.9451 16.708 12.9484C16.7013 12.8115 16.728 12.6846 16.7147 12.5544C16.6846 12.2505 16.4041 12.3473 16.5744 12.0167C16.6646 11.8397 16.7347 11.8096 16.6813 11.7529C16.5143 11.6761 16.3841 11.9933 16.1804 11.7295C16.1837 11.9599 16.2839 12.0968 16.1069 12.2338C15.9733 12.3373 15.9967 12.2438 15.9399 12.4041C15.9199 12.4609 15.8965 12.6378 15.8865 12.7046Z" fill="#FF5C00"/>
<path fill-rule="evenodd" clip-rule="evenodd" d="M31.5426 22.4717C31.1285 22.7088 31.1753 23.8476 31.6127 23.6372C31.9667 23.4635 32.0068 22.2012 31.5426 22.4717Z" fill="#FF5C00"/>
<path fill-rule="evenodd" clip-rule="evenodd" d="M28.0492 36.1644C28.4099 35.7336 27.7987 34.902 27.5282 35.0223C27.3112 35.1224 27.4314 35.5566 27.5115 35.7269C27.6218 35.954 27.7386 36.1577 28.0492 36.1644Z" fill="#FF5C00"/>
<path fill-rule="evenodd" clip-rule="evenodd" d="M14.2214 8.85028L14.6088 8.94379C14.7691 8.77347 14.9461 8.65659 14.8759 8.28924C14.4618 8.07551 14.709 8.29926 14.5387 7.90186C14.0143 7.93859 14.3216 7.97199 14.2047 8.32932C14.1646 8.44954 13.9843 8.50631 14.168 8.78683C14.198 8.83359 14.188 8.81689 14.2214 8.85028Z" fill="#FF5C00"/>
<path fill-rule="evenodd" clip-rule="evenodd" d="M16.6506 12.1564C16.7007 12.29 16.7909 12.3101 16.831 12.4704C16.8744 12.6373 16.8076 12.7141 16.8644 12.8678C16.9345 13.0481 17.0547 12.8177 17.2618 12.5939C17.3954 12.4537 17.4388 12.1397 17.3987 11.946C17.2851 11.9026 16.9812 11.9026 16.7842 11.8525L16.6506 12.1564Z" fill="#FF5C00"/>
<path fill-rule="evenodd" clip-rule="evenodd" d="M27.5813 32.758C27.6514 32.1468 26.9334 31.6259 26.8098 31.9465C26.7297 32.1569 26.9067 32.4674 26.9969 32.571C27.1572 32.758 27.3074 32.9116 27.5813 32.758Z" fill="#FF5C00"/>
<path fill-rule="evenodd" clip-rule="evenodd" d="M10.0899 11.7088L10.0832 10.4966C10.0197 10.5467 10.0231 10.5801 9.94293 10.6469C9.70582 10.8406 9.66574 10.9374 9.49877 11.1879C9.3919 11.3448 9.41528 11.5018 9.58893 11.5819C9.81268 11.6855 9.91287 11.4884 10.0899 11.7088Z" fill="#FF5C00"/>
<path fill-rule="evenodd" clip-rule="evenodd" d="M25.2637 30.7307C25.3038 30.537 25.277 30.3701 25.1769 30.2131C25.1368 30.143 24.9464 29.8892 24.8062 29.9793C24.6492 30.0795 24.7828 30.7608 25.2637 30.7307Z" fill="#FF5C00"/>
<path fill-rule="evenodd" clip-rule="evenodd" d="M9.51457 10.9312L9.64815 10.7174C9.71494 10.6339 9.76837 10.6339 9.8552 10.5605C10.0021 10.4336 10.0021 10.2833 10.0823 10.0996C9.79843 10.0662 9.63145 10.1163 9.53794 10.32C9.41104 10.6005 9.35427 10.6773 9.51457 10.9312Z" fill="#FF5C00"/>
<path fill-rule="evenodd" clip-rule="evenodd" d="M32.561 46.958C32.915 47.0849 33.2223 46.8979 33.3158 46.6375C33.1989 46.6942 33.1254 46.7677 32.9685 46.8278C32.905 46.8545 32.8516 46.8712 32.7781 46.8879C32.748 46.8946 32.6779 46.908 32.6545 46.9113L32.5811 46.9447C32.5777 46.948 32.5677 46.9547 32.561 46.958Z" fill="black"/>
</svg>
