<?xml version="1.0" encoding="utf-8"?>
<!-- Generator: Adobe Illustrator 22.1.0, SVG Export Plug-In . SVG Version: 6.00 Build 0)  -->
<svg version="1.1" id="Capa_1" xmlns="http://www.w3.org/2000/svg" xmlns:xlink="http://www.w3.org/1999/xlink" x="0px" y="0px"
	 viewBox="0 0 512 512" style="enable-background:new 0 0 512 512;" xml:space="preserve">
<style type="text/css">
	.st0{fill:#FFFFFF;}
</style>
<path class="st0" d="M504.4,185.1c-6.8-8.5-16.9-13.3-27.8-13.3H378L324.5,49.3c-3.3-7.6-12.2-11.1-19.7-7.7
	c-7.6,3.3-11.1,12.2-7.7,19.8l48.2,110.4H166.8L215,61.3c3.3-7.6-0.2-16.4-7.7-19.8c-7.6-3.3-16.4,0.2-19.7,7.7L134,171.7H35.4
	c-10.9,0-21.1,4.9-27.8,13.3c-6.6,8.3-9.1,19-6.7,29.4l52.7,230c3.7,16.1,17.9,27.3,34.5,27.3h335.8c16.7,0,30.9-11.2,34.5-27.3
	l52.7-230C513.5,204.1,511,193.4,504.4,185.1L504.4,185.1z M423.9,441.7H88.1c-2.5,0-4.8-1.7-5.3-4l-52.7-230
	c-0.4-1.8,0.3-3.2,0.9-4c0.6-0.8,2-2,4.4-2h85.5l-3.9,9c-3.3,7.6,0.2,16.4,7.7,19.8c2,0.9,4,1.3,6,1.3c5.8,0,11.3-3.4,13.8-9l9.2-21
	h204.7l9.2,21c2.5,5.6,8,9,13.8,9c2,0,4-0.4,6-1.3c7.6-3.3,11.1-12.2,7.7-19.8l-3.9-9h85.5c2.4,0,3.8,1.3,4.4,2
	c0.7,0.8,1.3,2.2,0.9,4l-52.7,230C428.7,440,426.5,441.7,423.9,441.7L423.9,441.7z"/>
<path class="st0" d="M166,266.7c-8.3,0-15,6.7-15,15v110c0,8.3,6.7,15,15,15s15-6.7,15-15v-110C181,273.4,174.3,266.7,166,266.7z"/>
<path class="st0" d="M256,266.7c-8.3,0-15,6.7-15,15v110c0,8.3,6.7,15,15,15s15-6.7,15-15v-110C271,273.4,264.3,266.7,256,266.7z"/>
<path class="st0" d="M346,266.7c-8.3,0-15,6.7-15,15v110c0,8.3,6.7,15,15,15s15-6.7,15-15v-110C361,273.4,354.3,266.7,346,266.7z"/>
</svg>
