<svg width="29" height="29" viewBox="0 0 29 29" fill="none" xmlns="http://www.w3.org/2000/svg">
<path fill-rule="evenodd" clip-rule="evenodd" d="M6.85274 1.72146H22.1473C24.9777 1.72146 27.2785 4.02226 27.2785 6.85274V22.1473C27.2785 24.9777 24.9777 27.2785 22.1473 27.2785H6.85274C4.02226 27.2785 1.72146 24.9777 1.72146 22.1473V6.85274C1.72146 4.02226 4.02226 1.72146 6.85274 1.72146ZM22.1473 0H6.85274C3.09532 0 0 3.07877 0 6.85274V22.1473C0 25.9047 3.09532 29 6.85274 29H22.1473C25.9212 29 29 25.9047 29 22.1473V6.85274C29 3.07877 25.9212 0 22.1473 0Z" fill="#828282"/>
<path fill-rule="evenodd" clip-rule="evenodd" d="M23.8548 8.91357C23.5897 8.71506 22.6309 8.71506 21.6824 8.71506C20.7134 8.73596 19.7547 8.73596 19.5201 8.82999C19.3161 8.90312 18.8572 10.0524 18.2554 11.2435C17.5618 12.5704 16.7255 13.8659 16.1849 13.845C15.4914 13.845 15.6546 11.651 15.7056 10.0315C15.7158 8.96581 15.5526 8.62103 15.3996 8.52699C15.0324 8.26579 14.0329 8.01504 14.0329 8.01504C14.0329 8.01504 11.0139 7.78519 10.5855 9.12253C11.1669 9.19567 12.1562 9.01805 11.7686 13.145C11.738 13.354 11.3096 15.0466 9.90214 12.7584C9.55536 12.1838 8.20904 8.73596 7.73988 8.71506C6.18958 8.68372 4.64947 8.61058 4.11911 8.91357C3.60914 9.21656 4.78207 11.5883 6.77094 14.754C8.37223 17.366 10.0857 19.3825 13.0435 19.8944C13.6045 19.9467 15.0426 20.0094 15.5118 19.79C15.8178 19.6332 15.4302 17.3974 16.4909 17.1675C16.9499 17.0839 18.7552 19.5183 19.4385 19.79C19.8465 19.9571 20.7542 20.0303 21.6824 19.9885C22.6921 19.9571 23.8344 20.093 23.9466 19.3825C24.1914 17.8362 20.897 15.8197 20.8052 14.8689C20.7236 14.1794 22.0088 12.9152 22.6615 11.9435C23.4673 10.7733 24.3546 9.36284 23.8548 8.91357Z" fill="#828282"/>
</svg>
